<svg width="33" height="33" viewBox="0 0 33 33" fill="none" xmlns="http://www.w3.org/2000/svg">
<g clip-path="url(#clip0_1_1253)">
<path d="M5.79395 8.71191V24.7119C5.79395 25.2423 6.00466 25.7511 6.37973 26.1261C6.7548 26.5012 7.26351 26.7119 7.79395 26.7119H27.7939C28.0592 26.7119 28.3135 26.6066 28.5011 26.419C28.6886 26.2315 28.7939 25.9771 28.7939 25.7119V11.7119C28.7939 11.4467 28.6886 11.1923 28.5011 11.0048C28.3135 10.8173 28.0592 10.7119 27.7939 10.7119H7.79395C7.26351 10.7119 6.7548 10.5012 6.37973 10.1261C6.00466 9.75105 5.79395 9.24235 5.79395 8.71191ZM5.79395 8.71191C5.79395 8.18148 6.00466 7.67277 6.37973 7.2977C6.7548 6.92263 7.26351 6.71191 7.79395 6.71191H24.7939" stroke="url(#paint0_linear_1_1253)" stroke-width="2" stroke-linecap="round" stroke-linejoin="round"/>
<path d="M23.2939 19.7119C24.1224 19.7119 24.7939 19.0403 24.7939 18.2119C24.7939 17.3835 24.1224 16.7119 23.2939 16.7119C22.4655 16.7119 21.7939 17.3835 21.7939 18.2119C21.7939 19.0403 22.4655 19.7119 23.2939 19.7119Z" fill="url(#paint1_linear_1_1253)"/>
</g>
<defs>
<linearGradient id="paint0_linear_1_1253" x1="5.79395" y1="9.24809" x2="30.2577" y2="24.3391" gradientUnits="userSpaceOnUse">
<stop stop-color="#409099"/>
<stop offset="1" stop-color="#84E681"/>
</linearGradient>
<linearGradient id="paint1_linear_1_1253" x1="21.7939" y1="17.0923" x2="25.2148" y2="18.9273" gradientUnits="userSpaceOnUse">
<stop stop-color="#409099"/>
<stop offset="1" stop-color="#84E681"/>
</linearGradient>
<clipPath id="clip0_1_1253">
<rect width="32" height="32" fill="white" transform="translate(0.793945 0.711914)"/>
</clipPath>
</defs>
</svg>
