<svg width="351" height="212" viewBox="0 0 351 212" fill="none" xmlns="http://www.w3.org/2000/svg">
<rect width="351" height="212" rx="10" fill="#F3F3F3"/>
<rect width="351" height="212" rx="10" fill="url(#paint0_linear_161_263)"/>
<path d="M145.383 135.57C143.403 135.57 141.733 135.26 140.373 134.64C139.013 134 137.983 133.14 137.283 132.06C136.583 130.96 136.233 129.7 136.233 128.28H141.003C141.003 128.84 141.153 129.36 141.453 129.84C141.773 130.32 142.253 130.71 142.893 131.01C143.533 131.29 144.363 131.43 145.383 131.43C146.303 131.43 147.073 131.31 147.693 131.07C148.313 130.83 148.783 130.5 149.103 130.08C149.423 129.64 149.583 129.14 149.583 128.58C149.583 127.88 149.283 127.33 148.683 126.93C148.083 126.51 147.113 126.24 145.773 126.12L144.123 125.97C141.943 125.79 140.203 125.11 138.903 123.93C137.603 122.75 136.953 121.19 136.953 119.25C136.953 117.85 137.283 116.64 137.943 115.62C138.623 114.6 139.563 113.82 140.763 113.28C141.963 112.72 143.383 112.44 145.023 112.44C146.743 112.44 148.213 112.74 149.433 113.34C150.673 113.92 151.623 114.75 152.283 115.83C152.943 116.89 153.273 118.14 153.273 119.58H148.473C148.473 119.04 148.343 118.55 148.083 118.11C147.823 117.65 147.433 117.28 146.913 117C146.413 116.72 145.783 116.58 145.023 116.58C144.303 116.58 143.693 116.7 143.193 116.94C142.713 117.18 142.353 117.51 142.113 117.93C141.873 118.33 141.753 118.77 141.753 119.25C141.753 119.87 141.973 120.41 142.413 120.87C142.853 121.33 143.573 121.6 144.573 121.68L146.253 121.83C147.853 121.97 149.263 122.32 150.483 122.88C151.703 123.42 152.653 124.17 153.333 125.13C154.033 126.07 154.383 127.22 154.383 128.58C154.383 129.98 154.013 131.21 153.273 132.27C152.553 133.31 151.523 134.12 150.183 134.7C148.843 135.28 147.243 135.57 145.383 135.57ZM165.033 135.57C163.633 135.57 162.393 135.33 161.313 134.85C160.253 134.37 159.363 133.73 158.643 132.93C157.943 132.11 157.403 131.2 157.023 130.2C156.663 129.18 156.483 128.14 156.483 127.08V126.48C156.483 125.38 156.663 124.33 157.023 123.33C157.403 122.31 157.943 121.4 158.643 120.6C159.343 119.8 160.213 119.17 161.253 118.71C162.313 118.23 163.513 117.99 164.853 117.99C166.613 117.99 168.093 118.39 169.293 119.19C170.513 119.97 171.443 121 172.083 122.28C172.723 123.54 173.043 124.92 173.043 126.42V128.04H158.493V125.31H170.133L168.573 126.57C168.573 125.59 168.433 124.75 168.153 124.05C167.873 123.35 167.453 122.82 166.893 122.46C166.353 122.08 165.673 121.89 164.853 121.89C164.013 121.89 163.303 122.08 162.723 122.46C162.143 122.84 161.703 123.4 161.403 124.14C161.103 124.86 160.953 125.75 160.953 126.81C160.953 127.79 161.093 128.65 161.373 129.39C161.653 130.11 162.093 130.67 162.693 131.07C163.293 131.47 164.073 131.67 165.033 131.67C165.913 131.67 166.633 131.5 167.193 131.16C167.753 130.82 168.133 130.4 168.333 129.9H172.743C172.503 131 172.033 131.98 171.333 132.84C170.633 133.7 169.753 134.37 168.693 134.85C167.633 135.33 166.413 135.57 165.033 135.57ZM176.223 135V118.56H180.033V125.61H179.763C179.763 123.93 179.973 122.53 180.393 121.41C180.833 120.29 181.493 119.45 182.373 118.89C183.253 118.33 184.323 118.05 185.583 118.05H185.793C187.713 118.05 189.173 118.68 190.173 119.94C191.193 121.18 191.703 123.07 191.703 125.61V135H186.903V125.34C186.903 124.46 186.643 123.74 186.123 123.18C185.603 122.62 184.903 122.34 184.023 122.34C183.123 122.34 182.393 122.63 181.833 123.21C181.293 123.77 181.023 124.51 181.023 125.43V135H176.223ZM202.574 135.54C201.414 135.54 200.354 135.33 199.394 134.91C198.454 134.49 197.634 133.91 196.934 133.17C196.234 132.41 195.694 131.52 195.314 130.5C194.954 129.48 194.774 128.38 194.774 127.2V126.51C194.774 125.33 194.944 124.23 195.284 123.21C195.644 122.19 196.154 121.3 196.814 120.54C197.494 119.76 198.304 119.16 199.244 118.74C200.184 118.3 201.234 118.08 202.394 118.08C203.714 118.08 204.854 118.37 205.814 118.95C206.774 119.51 207.524 120.35 208.064 121.47C208.604 122.57 208.904 123.93 208.964 125.55L207.704 124.38V113.1H212.534V135H208.724V128.19H209.384C209.324 129.75 208.994 131.08 208.394 132.18C207.814 133.28 207.024 134.12 206.024 134.7C205.024 135.26 203.874 135.54 202.574 135.54ZM203.774 131.52C204.514 131.52 205.184 131.36 205.784 131.04C206.404 130.7 206.894 130.21 207.254 129.57C207.634 128.93 207.824 128.16 207.824 127.26V126.15C207.824 125.27 207.634 124.53 207.254 123.93C206.874 123.33 206.374 122.87 205.754 122.55C205.134 122.23 204.464 122.07 203.744 122.07C202.944 122.07 202.224 122.28 201.584 122.7C200.964 123.1 200.474 123.66 200.114 124.38C199.754 125.08 199.574 125.9 199.574 126.84C199.574 127.8 199.754 128.63 200.114 129.33C200.474 130.03 200.974 130.57 201.614 130.95C202.254 131.33 202.974 131.52 203.774 131.52ZM125.077 173V151.1H131.857L136.867 163.4H137.437L142.387 151.1H149.287V173H144.427V154.31L145.117 154.37L139.327 168.56H134.647L128.827 154.37L129.577 154.31V173H125.077ZM161.938 173.57C160.498 173.57 159.218 173.35 158.098 172.91C156.978 172.45 156.028 171.83 155.248 171.05C154.488 170.27 153.908 169.38 153.508 168.38C153.108 167.36 152.908 166.29 152.908 165.17V164.48C152.908 163.34 153.108 162.26 153.508 161.24C153.928 160.2 154.528 159.29 155.308 158.51C156.108 157.73 157.068 157.12 158.188 156.68C159.308 156.22 160.558 155.99 161.938 155.99C163.358 155.99 164.618 156.22 165.718 156.68C166.838 157.12 167.788 157.73 168.568 158.51C169.348 159.29 169.948 160.2 170.368 161.24C170.788 162.26 170.998 163.34 170.998 164.48V165.17C170.998 166.29 170.798 167.36 170.398 168.38C169.998 169.38 169.408 170.27 168.628 171.05C167.868 171.83 166.928 172.45 165.808 172.91C164.688 173.35 163.398 173.57 161.938 173.57ZM161.938 169.52C162.878 169.52 163.658 169.32 164.278 168.92C164.898 168.52 165.368 167.96 165.688 167.24C166.028 166.52 166.198 165.72 166.198 164.84C166.198 163.9 166.028 163.08 165.688 162.38C165.348 161.66 164.858 161.09 164.218 160.67C163.598 160.25 162.838 160.04 161.938 160.04C161.058 160.04 160.298 160.25 159.658 160.67C159.018 161.09 158.528 161.66 158.188 162.38C157.868 163.08 157.708 163.9 157.708 164.84C157.708 165.72 157.868 166.52 158.188 167.24C158.508 167.96 158.988 168.52 159.628 168.92C160.268 169.32 161.038 169.52 161.938 169.52ZM174.348 173V156.56H178.158V163.61H177.888C177.888 161.93 178.098 160.53 178.518 159.41C178.958 158.29 179.618 157.45 180.498 156.89C181.378 156.33 182.448 156.05 183.708 156.05H183.918C185.838 156.05 187.298 156.68 188.298 157.94C189.318 159.18 189.828 161.07 189.828 163.61V173H185.028V163.34C185.028 162.46 184.768 161.74 184.248 161.18C183.728 160.62 183.028 160.34 182.148 160.34C181.248 160.34 180.518 160.63 179.958 161.21C179.418 161.77 179.148 162.51 179.148 163.43V173H174.348ZM201.449 173.57C200.049 173.57 198.809 173.33 197.729 172.85C196.669 172.37 195.779 171.73 195.059 170.93C194.359 170.11 193.819 169.2 193.439 168.2C193.079 167.18 192.899 166.14 192.899 165.08V164.48C192.899 163.38 193.079 162.33 193.439 161.33C193.819 160.31 194.359 159.4 195.059 158.6C195.759 157.8 196.629 157.17 197.669 156.71C198.729 156.23 199.929 155.99 201.269 155.99C203.029 155.99 204.509 156.39 205.709 157.19C206.929 157.97 207.859 159 208.499 160.28C209.139 161.54 209.459 162.92 209.459 164.42V166.04H194.909V163.31H206.549L204.989 164.57C204.989 163.59 204.849 162.75 204.569 162.05C204.289 161.35 203.869 160.82 203.309 160.46C202.769 160.08 202.089 159.89 201.269 159.89C200.429 159.89 199.719 160.08 199.139 160.46C198.559 160.84 198.119 161.4 197.819 162.14C197.519 162.86 197.369 163.75 197.369 164.81C197.369 165.79 197.509 166.65 197.789 167.39C198.069 168.11 198.509 168.67 199.109 169.07C199.709 169.47 200.489 169.67 201.449 169.67C202.329 169.67 203.049 169.5 203.609 169.16C204.169 168.82 204.549 168.4 204.749 167.9H209.159C208.919 169 208.449 169.98 207.749 170.84C207.049 171.7 206.169 172.37 205.109 172.85C204.049 173.33 202.829 173.57 201.449 173.57ZM212.283 179.51V175.43H215.703C216.223 175.43 216.663 175.36 217.023 175.22C217.383 175.1 217.673 174.89 217.893 174.59C218.113 174.29 218.293 173.88 218.433 173.36L222.483 156.56H227.043L222.453 174.32C222.133 175.6 221.683 176.62 221.103 177.38C220.543 178.14 219.783 178.68 218.823 179C217.883 179.34 216.683 179.51 215.223 179.51H212.283ZM217.443 172.64V168.89H220.923V172.64H217.443ZM215.463 172.64L210.423 156.56H215.253L220.023 172.64H215.463Z" fill="white"/>
<path fill-rule="evenodd" clip-rule="evenodd" d="M156.118 57.0599C155.501 57.0599 155 56.5412 155 55.9421C155 55.325 155.507 54.8243 156.118 54.8243H191.421L185.504 48.9096C185.068 48.4714 185.068 47.7653 185.504 47.327C185.942 46.891 186.648 46.891 187.084 47.327L194.908 55.151C195.116 55.359 195.223 55.6247 195.235 55.8953C195.237 55.911 195.237 55.9267 195.237 55.9421C195.237 55.978 195.235 56.0113 195.232 56.045C195.208 56.2953 195.101 56.5412 194.908 56.7336L187.084 64.5575C186.648 64.9935 185.942 64.9935 185.504 64.5575C185.068 64.1193 185.068 63.4132 185.504 62.9749L191.421 57.0602L156.118 57.0599ZM194.119 70.4722C194.736 70.4722 195.237 70.9909 195.237 71.59C195.237 72.2071 194.729 72.7079 194.119 72.7079H158.816L164.733 78.6225C165.169 79.0607 165.169 79.7669 164.733 80.2052C164.294 80.6411 163.588 80.6411 163.152 80.2052L155.329 72.3816C155.121 72.1735 155.013 71.9078 155.002 71.6372C155 71.6215 155 71.6058 155 71.5904C155 71.5545 155.002 71.5212 155.005 71.4875C155.029 71.2349 155.136 70.9913 155.329 70.799L163.153 62.975C163.589 62.539 164.295 62.539 164.733 62.975C165.169 63.4132 165.169 64.1193 164.733 64.5576L158.816 70.4723H194.119L194.119 70.4722Z" fill="white" stroke="white" stroke-width="1.5"/>
<defs>
<linearGradient id="paint0_linear_161_263" x1="2.96863e-06" y1="26.8835" x2="288.137" y2="282.783" gradientUnits="userSpaceOnUse">
<stop stop-color="#409099"/>
<stop offset="1" stop-color="#84E681"/>
</linearGradient>
</defs>
</svg>
