<svg width="32" height="26" viewBox="0 0 32 26" fill="none" xmlns="http://www.w3.org/2000/svg">
<path fill-rule="evenodd" clip-rule="evenodd" d="M1.8251 7.67398C1.36151 7.67398 0.985352 7.28432 0.985352 6.83423C0.985352 6.37064 1.36657 5.99448 1.8251 5.99448H28.3462L23.9012 1.55117C23.5736 1.22196 23.5736 0.691484 23.9012 0.362219C24.2304 0.0346964 24.7608 0.0346964 25.0884 0.362219L30.9661 6.2399C31.1224 6.39621 31.2028 6.59581 31.2112 6.79907C31.2129 6.81088 31.2129 6.82269 31.2129 6.83421C31.2129 6.8612 31.2112 6.88622 31.2095 6.91152C31.191 7.0996 31.1106 7.28431 30.9661 7.42881L25.0881 13.3065C24.7606 13.634 24.2301 13.634 23.9009 13.3065C23.5733 12.9773 23.5733 12.4468 23.9009 12.1175L28.3459 7.67423L1.8251 7.67398ZM30.3729 17.7498C30.8365 17.7498 31.2126 18.1395 31.2126 18.5896C31.2126 19.0532 30.8314 19.4293 30.3729 19.4293H3.85179L8.29682 23.8726C8.62435 24.2019 8.62435 24.7323 8.29682 25.0616C7.96762 25.3891 7.43714 25.3891 7.1096 25.0616L1.23221 19.1842C1.0759 19.0279 0.995492 18.8283 0.987065 18.625C0.985378 18.6132 0.985378 18.6014 0.985378 18.5899C0.985378 18.5629 0.987065 18.5379 0.988752 18.5126C1.00731 18.3228 1.08771 18.1398 1.23221 17.9953L7.10989 12.1176C7.43741 11.7901 7.96792 11.7901 8.29711 12.1176C8.62464 12.4468 8.62464 12.9773 8.29711 13.3066L3.85208 17.7499L30.3729 17.7498Z" fill="#959595"/>
</svg>
