<svg width="47" height="22" viewBox="0 0 57 22" fill="none" xmlns="http://www.w3.org/2000/svg">
<g clip-path="url(#clip0_162_1895)">
<path d="M51.1096 15.1293L47.8189 7.67114H45.0876L49.7886 17.7343L49.7041 18.0373C49.5863 18.4401 49.3378 18.7879 49.0008 19.0215C48.6639 19.255 48.2594 19.3597 47.8565 19.3178C47.3849 19.3133 46.9221 19.1837 46.5121 18.9415L46.0749 21.0968C46.7058 21.3671 47.381 21.5082 48.0634 21.5122C49.9438 21.5122 51.0814 20.7938 52.0216 18.6775L57 7.67114H54.3627L51.1096 15.1293Z" fill="white"/>
<path d="M27.8529 4.11792H19.9646V17.827H22.5501V12.7881H27.8529C30.7345 12.7881 32.6291 11.278 32.6291 8.45301C32.6291 5.62812 30.7345 4.11792 27.8529 4.11792ZM27.7118 10.3885H22.5407V6.47853H27.7118C29.2068 6.47853 30.0623 7.18719 30.0623 8.43349C30.0623 9.67979 29.2068 10.3885 27.7118 10.3885Z" fill="white"/>
<path d="M43.4387 15.2273V11.0974C43.4387 8.65376 41.7511 7.38794 38.8553 7.38794C36.5048 7.38794 34.4457 8.52671 33.8675 10.2763L35.9924 11.0584C36.3074 10.1835 37.4027 9.53837 38.766 9.53837C40.3831 9.53837 41.0648 10.2226 41.0648 11.0584V11.3272L37.2194 11.767C35.0052 12.0114 33.5479 13.0426 33.5479 14.8852C33.5479 16.9036 35.2168 17.9886 37.4309 17.9886C38.8581 18.0349 40.2479 17.5101 41.3139 16.5224C41.6994 17.4999 42.0943 18.1548 44.7222 17.8078V15.7649C43.6691 16.0288 43.4387 15.7649 43.4387 15.2273ZM41.0883 13.9175C41.0883 15.2468 39.2972 15.9506 37.7976 15.9506C36.6552 15.9506 35.9689 15.5694 35.9689 14.8118C35.9689 14.0543 36.533 13.7806 37.6236 13.6487L41.0977 13.2283L41.0883 13.9175Z" fill="white"/>
<path d="M15.0744 14.6115C15.0927 14.6686 15.0927 14.7303 15.0744 14.7874C15.0638 14.8444 15.0377 14.897 14.9992 14.9389L12.5124 17.6514C12.4575 17.7099 12.3921 17.7565 12.3196 17.7883C12.247 17.8213 12.1685 17.838 12.0893 17.8371H0.294483C0.23986 17.8376 0.18617 17.8224 0.13935 17.7931C0.092562 17.7601 0.0552123 17.7145 0.0312278 17.6612C0.0146633 17.6072 0.0146633 17.5491 0.0312278 17.495C0.0409762 17.4388 0.0653639 17.3863 0.101742 17.3435L2.59327 14.6311C2.64807 14.5725 2.71361 14.5259 2.78601 14.4942C2.85846 14.4607 2.93707 14.444 3.01636 14.4453H14.7924C14.8492 14.4442 14.905 14.4612 14.9522 14.4942C15.0051 14.5169 15.0485 14.5584 15.0744 14.6115ZM12.5171 9.46016C12.4611 9.40316 12.3958 9.35682 12.3243 9.32334C12.251 9.29254 12.173 9.27604 12.094 9.27446H0.294483C0.239177 9.27529 0.185204 9.2922 0.138676 9.32334C0.0921491 9.35442 0.0549271 9.39842 0.0312278 9.45039C0.0149679 9.5045 0.0149679 9.56246 0.0312278 9.61656C0.0391449 9.67342 0.0637741 9.72636 0.101742 9.76809L2.59327 12.4854C2.64929 12.5425 2.71453 12.5888 2.78601 12.6223C2.85917 12.6535 2.93731 12.67 3.01636 12.6712H14.7924C14.8492 12.6723 14.905 12.6552 14.9522 12.6223C14.9997 12.5935 15.0361 12.5487 15.0556 12.4953C15.0797 12.4432 15.0877 12.3847 15.0784 12.3279C15.0691 12.2709 15.0431 12.2184 15.0039 12.1776L12.5171 9.46016ZM0.13935 7.4563C0.18617 7.48559 0.23986 7.50078 0.294483 7.5003H12.094C12.1732 7.50119 12.2518 7.48449 12.3243 7.45142C12.3967 7.41966 12.4623 7.37318 12.5171 7.31461L15.0039 4.6021C15.0424 4.56012 15.0685 4.50754 15.0791 4.45059C15.0954 4.39649 15.0954 4.33852 15.0791 4.28442C15.0597 4.23099 15.0231 4.18613 14.9757 4.15734C14.9285 4.12441 14.8727 4.10735 14.8159 4.10847H2.99756C2.91827 4.10716 2.83966 4.12384 2.76721 4.15734C2.69481 4.18911 2.62926 4.23564 2.57446 4.29419L0.0876401 7.01644C0.0482072 7.05776 0.0219463 7.11062 0.0124234 7.16796C-0.00414114 7.222 -0.00414114 7.28009 0.0124234 7.33413C0.0429348 7.38638 0.0869025 7.42873 0.13935 7.4563Z" fill="url(#paint0_linear_162_1895)"/>
</g>
<defs>
<linearGradient id="paint0_linear_162_1895" x1="1.27388" y1="18.1644" x2="13.8948" y2="4.17696" gradientUnits="userSpaceOnUse">
<stop offset="0.08" stop-color="#9945FF"/>
<stop offset="0.3" stop-color="#8752F3"/>
<stop offset="0.5" stop-color="#5497D5"/>
<stop offset="0.6" stop-color="#43B4CA"/>
<stop offset="0.72" stop-color="#28E0B9"/>
<stop offset="0.97" stop-color="#19FB9B"/>
</linearGradient>
<clipPath id="clip0_162_1895">
<rect width="57" height="22" fill="white"/>
</clipPath>
</defs>
</svg>
