<svg width="97" height="97" viewBox="0 0 97 97" fill="none" xmlns="http://www.w3.org/2000/svg">
<circle cx="48.3232" cy="48.4763" r="47.3489" stroke="black"/>
<path d="M41.8372 17.299L31.3778 18.3868L22.5918 29.683V35.9589L29.2858 43.3224L36.9841 41.7325L42.8415 42.9039L41.5864 47.4225L45.6027 54.7023L43.5946 59.8065L48.3352 73.6537L54.7235 72.609L60.581 65.9986L61.0829 61.3963L64.8484 58.5514L64.0951 50.2674L74.0546 37.5201L67.8606 38.3854L58.4052 21.9012L43.5107 20.8971L41.8373 17.2991L41.8372 17.299ZM71.9018 55.4001L70.186 57.8854L68.5885 57.9445C67.1768 60.8421 67.0876 62.4741 66.9316 65.8729L69.0027 66.4056L71.6061 60.1928L71.9018 55.4001Z" fill="black"/>
</svg>
