<svg width="271" height="50" viewBox="0 0 271 50" fill="none" xmlns="http://www.w3.org/2000/svg">
<rect x="0.5" y="1" width="270" height="48" rx="4.5" fill="white"/>
<path d="M27.392 26.416V24.448H29.664C30.1227 24.448 30.5067 24.3573 30.816 24.176C31.136 23.9947 31.376 23.744 31.536 23.424C31.7067 23.104 31.792 22.736 31.792 22.32C31.792 21.904 31.7067 21.536 31.536 21.216C31.376 20.896 31.136 20.6507 30.816 20.48C30.5067 20.2987 30.1227 20.208 29.664 20.208H27.392V18.24H29.472C30.4533 18.24 31.2853 18.4 31.968 18.72C32.6613 19.04 33.1893 19.4987 33.552 20.096C33.9147 20.6827 34.096 21.3813 34.096 22.192V22.448C34.096 23.2587 33.9147 23.9627 33.552 24.56C33.1893 25.1467 32.6613 25.6053 31.968 25.936C31.2853 26.256 30.4533 26.416 29.472 26.416H27.392ZM25.44 30V18.24H27.712V30H25.44ZM40.9499 30V27.424H40.5819V24.56C40.5819 24.0587 40.4592 23.6853 40.2139 23.44C39.9685 23.1947 39.5899 23.072 39.0779 23.072C38.8112 23.072 38.4912 23.0773 38.1179 23.088C37.7445 23.0987 37.3659 23.1147 36.9819 23.136C36.6085 23.1467 36.2725 23.1627 35.9739 23.184V21.296C36.2192 21.2747 36.4965 21.2533 36.8059 21.232C37.1152 21.2107 37.4299 21.2 37.7499 21.2C38.0805 21.1893 38.3899 21.184 38.6779 21.184C39.5739 21.184 40.3152 21.3013 40.9019 21.536C41.4992 21.7707 41.9472 22.1387 42.2459 22.64C42.5552 23.1413 42.7099 23.7973 42.7099 24.608V30H40.9499ZM38.1499 30.224C37.5205 30.224 36.9659 30.112 36.4859 29.888C36.0165 29.664 35.6485 29.344 35.3819 28.928C35.1259 28.512 34.9979 28.0107 34.9979 27.424C34.9979 26.784 35.1525 26.2613 35.4619 25.856C35.7819 25.4507 36.2245 25.1467 36.7899 24.944C37.3659 24.7413 38.0379 24.64 38.8059 24.64H40.8219V25.968H38.7739C38.2619 25.968 37.8672 26.096 37.5899 26.352C37.3232 26.5973 37.1899 26.9173 37.1899 27.312C37.1899 27.7067 37.3232 28.0267 37.5899 28.272C37.8672 28.5173 38.2619 28.64 38.7739 28.64C39.0832 28.64 39.3659 28.5867 39.6219 28.48C39.8885 28.3627 40.1072 28.1707 40.2779 27.904C40.4592 27.6267 40.5605 27.2533 40.5819 26.784L41.1259 27.408C41.0725 28.016 40.9232 28.528 40.6779 28.944C40.4432 29.36 40.1125 29.68 39.6859 29.904C39.2699 30.1173 38.7579 30.224 38.1499 30.224ZM44.7268 33.424V31.52H46.3588C46.6681 31.52 46.9241 31.4773 47.1268 31.392C47.3401 31.3173 47.5161 31.1893 47.6548 31.008C47.7934 30.8373 47.9001 30.5973 47.9748 30.288L50.3108 21.312H52.4388L49.8628 30.768C49.6921 31.4187 49.4521 31.936 49.1428 32.32C48.8334 32.7147 48.4334 32.9973 47.9427 33.168C47.4628 33.3387 46.8654 33.424 46.1508 33.424H44.7268ZM47.4308 29.808V28.048H49.2868V29.808H47.4308ZM46.6788 29.808L43.8628 21.312H46.1028L48.7748 29.808H46.6788ZM60.3963 30L62.0443 21.6H64.6042L66.5083 30H64.7483L62.8123 21.648H63.7403L62.0283 30H60.3963ZM59.7403 30L59.7243 28.176H61.5003V30H59.7403ZM58.8443 30L56.4763 21.312H58.6363L60.8923 30H58.8443ZM65.3083 30V28.176H67.0843L67.0683 30H65.3083ZM66.0123 30L68.0123 21.312H70.0283L67.9323 30H66.0123ZM72.1956 30V21.312H74.4196V30H72.1956ZM70.9796 22.976V21.312H74.4196V22.976H70.9796ZM73.0116 20.272C72.5743 20.272 72.249 20.16 72.0356 19.936C71.833 19.7013 71.7316 19.4133 71.7316 19.072C71.7316 18.7093 71.833 18.416 72.0356 18.192C72.249 17.968 72.5743 17.856 73.0116 17.856C73.449 17.856 73.769 17.968 73.9716 18.192C74.1743 18.416 74.2756 18.7093 74.2756 19.072C74.2756 19.4133 74.1743 19.7013 73.9716 19.936C73.769 20.16 73.449 20.272 73.0116 20.272ZM80.7588 30.112C79.9588 30.112 79.2974 30.0107 78.7748 29.808C78.2628 29.5947 77.8788 29.2427 77.6228 28.752C77.3668 28.2507 77.2388 27.5787 77.2388 26.736L77.2548 18.864H79.3348L79.3188 26.88C79.3188 27.3067 79.4308 27.6373 79.6548 27.872C79.8894 28.096 80.2201 28.208 80.6468 28.208H82.0068V30.112H80.7588ZM75.8628 22.944V21.312H82.0068V22.944H75.8628ZM83.8734 30V18.32H86.0974V25.136H85.7134C85.7134 24.2613 85.8254 23.52 86.0494 22.912C86.2734 22.304 86.604 21.84 87.0414 21.52C87.4894 21.2 88.0547 21.04 88.7374 21.04H88.8334C89.8254 21.04 90.5774 21.3813 91.0894 22.064C91.6014 22.7467 91.8574 23.7387 91.8574 25.04V30H89.6334V24.832C89.6334 24.2773 89.4734 23.84 89.1534 23.52C88.844 23.2 88.4334 23.04 87.9214 23.04C87.3774 23.04 86.9347 23.2213 86.5934 23.584C86.2627 23.936 86.0974 24.4 86.0974 24.976V30H83.8734ZM103.142 30.304C102.086 30.304 101.179 30.1173 100.422 29.744C99.6642 29.3707 99.0455 28.8853 98.5655 28.288C98.0962 27.6907 97.7495 27.04 97.5255 26.336C97.3015 25.632 97.1895 24.9547 97.1895 24.304V23.952C97.1895 23.2267 97.3015 22.512 97.5255 21.808C97.7602 21.104 98.1175 20.464 98.5975 19.888C99.0775 19.312 99.6855 18.8533 100.422 18.512C101.168 18.16 102.048 17.984 103.062 17.984C104.118 17.984 105.035 18.176 105.814 18.56C106.603 18.9333 107.232 19.4667 107.702 20.16C108.171 20.8427 108.454 21.6427 108.55 22.56H106.262C106.176 22.0267 105.984 21.5787 105.686 21.216C105.398 20.8427 105.03 20.5653 104.582 20.384C104.134 20.192 103.627 20.096 103.062 20.096C102.486 20.096 101.974 20.1973 101.526 20.4C101.078 20.592 100.704 20.8693 100.406 21.232C100.107 21.5947 99.8775 22.0213 99.7175 22.512C99.5682 23.0027 99.4935 23.5467 99.4935 24.144C99.4935 24.72 99.5682 25.2533 99.7175 25.744C99.8775 26.2347 100.112 26.6667 100.422 27.04C100.731 27.4027 101.11 27.6853 101.558 27.888C102.016 28.0907 102.544 28.192 103.142 28.192C104.016 28.192 104.752 27.9787 105.35 27.552C105.958 27.1147 106.326 26.5067 106.454 25.728H108.742C108.635 26.56 108.352 27.3227 107.894 28.016C107.435 28.7093 106.806 29.264 106.006 29.68C105.206 30.096 104.251 30.304 103.142 30.304ZM115.747 30V27.424H115.379V24.56C115.379 24.0587 115.256 23.6853 115.011 23.44C114.765 23.1947 114.387 23.072 113.875 23.072C113.608 23.072 113.288 23.0773 112.915 23.088C112.541 23.0987 112.163 23.1147 111.779 23.136C111.405 23.1467 111.069 23.1627 110.771 23.184V21.296C111.016 21.2747 111.293 21.2533 111.603 21.232C111.912 21.2107 112.227 21.2 112.547 21.2C112.877 21.1893 113.187 21.184 113.475 21.184C114.371 21.184 115.112 21.3013 115.699 21.536C116.296 21.7707 116.744 22.1387 117.043 22.64C117.352 23.1413 117.507 23.7973 117.507 24.608V30H115.747ZM112.947 30.224C112.317 30.224 111.763 30.112 111.283 29.888C110.813 29.664 110.445 29.344 110.179 28.928C109.923 28.512 109.795 28.0107 109.795 27.424C109.795 26.784 109.949 26.2613 110.259 25.856C110.579 25.4507 111.021 25.1467 111.587 24.944C112.163 24.7413 112.835 24.64 113.603 24.64H115.619V25.968H113.571C113.059 25.968 112.664 26.096 112.387 26.352C112.12 26.5973 111.987 26.9173 111.987 27.312C111.987 27.7067 112.12 28.0267 112.387 28.272C112.664 28.5173 113.059 28.64 113.571 28.64C113.88 28.64 114.163 28.5867 114.419 28.48C114.685 28.3627 114.904 28.1707 115.075 27.904C115.256 27.6267 115.357 27.2533 115.379 26.784L115.923 27.408C115.869 28.016 115.72 28.528 115.475 28.944C115.24 29.36 114.909 29.68 114.483 29.904C114.067 30.1173 113.555 30.224 112.947 30.224ZM123.041 30.272C121.846 30.272 120.908 30.0213 120.225 29.52C119.553 29.008 119.201 28.304 119.169 27.408H121.169C121.201 27.7067 121.366 27.9787 121.665 28.224C121.964 28.4693 122.433 28.592 123.073 28.592C123.606 28.592 124.028 28.496 124.337 28.304C124.657 28.112 124.817 27.8507 124.817 27.52C124.817 27.232 124.694 27.0027 124.449 26.832C124.214 26.6613 123.809 26.5493 123.233 26.496L122.465 26.416C121.494 26.3093 120.748 26.032 120.225 25.584C119.702 25.136 119.441 24.5387 119.441 23.792C119.441 23.1947 119.59 22.6933 119.889 22.288C120.188 21.8827 120.598 21.5787 121.121 21.376C121.654 21.1627 122.262 21.056 122.945 21.056C124.012 21.056 124.876 21.2907 125.537 21.76C126.198 22.2293 126.545 22.9173 126.577 23.824H124.577C124.556 23.5253 124.406 23.2693 124.129 23.056C123.852 22.8427 123.452 22.736 122.929 22.736C122.46 22.736 122.097 22.8267 121.841 23.008C121.585 23.1893 121.457 23.424 121.457 23.712C121.457 23.9893 121.558 24.2027 121.761 24.352C121.974 24.5013 122.316 24.6027 122.785 24.656L123.553 24.736C124.577 24.8427 125.377 25.1253 125.953 25.584C126.54 26.0427 126.833 26.6613 126.833 27.44C126.833 28.016 126.673 28.5173 126.353 28.944C126.044 29.36 125.606 29.6853 125.041 29.92C124.476 30.1547 123.809 30.272 123.041 30.272ZM128.67 30V18.32H130.894V25.136H130.51C130.51 24.2613 130.622 23.52 130.846 22.912C131.07 22.304 131.401 21.84 131.838 21.52C132.286 21.2 132.852 21.04 133.534 21.04H133.63C134.622 21.04 135.374 21.3813 135.886 22.064C136.398 22.7467 136.654 23.7387 136.654 25.04V30H134.43V24.832C134.43 24.2773 134.27 23.84 133.95 23.52C133.641 23.2 133.23 23.04 132.718 23.04C132.174 23.04 131.732 23.2213 131.39 23.584C131.06 23.936 130.894 24.4 130.894 24.976V30H128.67ZM144.149 30.288C143.435 30.288 142.805 30.1387 142.261 29.84C141.717 29.5307 141.291 29.0827 140.981 28.496C140.672 27.9093 140.501 27.2 140.469 26.368H140.805V30H139.045V18.32H141.269V24.16L140.677 25.072C140.72 24.176 140.896 23.4293 141.205 22.832C141.525 22.2347 141.952 21.7867 142.485 21.488C143.019 21.1893 143.621 21.04 144.293 21.04C144.891 21.04 145.435 21.152 145.925 21.376C146.416 21.6 146.837 21.9147 147.189 22.32C147.541 22.7147 147.808 23.1787 147.989 23.712C148.181 24.2453 148.277 24.8267 148.277 25.456V25.792C148.277 26.4213 148.181 27.008 147.989 27.552C147.797 28.096 147.52 28.576 147.157 28.992C146.795 29.3973 146.357 29.7173 145.845 29.952C145.344 30.176 144.779 30.288 144.149 30.288ZM143.653 28.416C144.133 28.416 144.549 28.2987 144.901 28.064C145.264 27.8187 145.547 27.488 145.749 27.072C145.952 26.656 146.053 26.176 146.053 25.632C146.053 25.0773 145.952 24.5973 145.749 24.192C145.547 23.7867 145.264 23.472 144.901 23.248C144.549 23.024 144.133 22.912 143.653 22.912C143.216 22.912 142.811 23.008 142.437 23.2C142.075 23.392 141.776 23.6747 141.541 24.048C141.317 24.4213 141.205 24.8693 141.205 25.392V26.032C141.205 26.5333 141.323 26.96 141.557 27.312C141.792 27.664 142.096 27.936 142.469 28.128C142.843 28.32 143.237 28.416 143.653 28.416ZM155.497 30V27.424H155.129V24.56C155.129 24.0587 155.006 23.6853 154.761 23.44C154.515 23.1947 154.137 23.072 153.625 23.072C153.358 23.072 153.038 23.0773 152.665 23.088C152.291 23.0987 151.913 23.1147 151.529 23.136C151.155 23.1467 150.819 23.1627 150.521 23.184V21.296C150.766 21.2747 151.043 21.2533 151.353 21.232C151.662 21.2107 151.977 21.2 152.297 21.2C152.627 21.1893 152.937 21.184 153.225 21.184C154.121 21.184 154.862 21.3013 155.449 21.536C156.046 21.7707 156.494 22.1387 156.793 22.64C157.102 23.1413 157.257 23.7973 157.257 24.608V30H155.497ZM152.697 30.224C152.067 30.224 151.513 30.112 151.033 29.888C150.563 29.664 150.195 29.344 149.929 28.928C149.673 28.512 149.545 28.0107 149.545 27.424C149.545 26.784 149.699 26.2613 150.009 25.856C150.329 25.4507 150.771 25.1467 151.337 24.944C151.913 24.7413 152.585 24.64 153.353 24.64H155.369V25.968H153.321C152.809 25.968 152.414 26.096 152.137 26.352C151.87 26.5973 151.737 26.9173 151.737 27.312C151.737 27.7067 151.87 28.0267 152.137 28.272C152.414 28.5173 152.809 28.64 153.321 28.64C153.63 28.64 153.913 28.5867 154.169 28.48C154.435 28.3627 154.654 28.1707 154.825 27.904C155.006 27.6267 155.107 27.2533 155.129 26.784L155.673 27.408C155.619 28.016 155.47 28.528 155.225 28.944C154.99 29.36 154.659 29.68 154.233 29.904C153.817 30.1173 153.305 30.224 152.697 30.224ZM163.495 30.304C162.738 30.304 162.082 30.176 161.527 29.92C160.983 29.664 160.524 29.3227 160.151 28.896C159.788 28.4693 159.516 27.9893 159.335 27.456C159.154 26.9227 159.063 26.3787 159.063 25.824V25.52C159.063 24.9333 159.154 24.3733 159.335 23.84C159.527 23.296 159.81 22.816 160.183 22.4C160.556 21.9733 161.015 21.6373 161.559 21.392C162.114 21.136 162.754 21.008 163.479 21.008C164.236 21.008 164.914 21.1573 165.511 21.456C166.108 21.744 166.583 22.1493 166.935 22.672C167.298 23.1947 167.5 23.8027 167.543 24.496H165.383C165.33 24.048 165.138 23.6747 164.807 23.376C164.487 23.0773 164.044 22.928 163.479 22.928C162.988 22.928 162.578 23.0453 162.247 23.28C161.927 23.5147 161.687 23.84 161.527 24.256C161.367 24.6613 161.287 25.1307 161.287 25.664C161.287 26.176 161.362 26.64 161.511 27.056C161.671 27.472 161.911 27.7973 162.231 28.032C162.562 28.2667 162.983 28.384 163.495 28.384C163.879 28.384 164.21 28.3147 164.487 28.176C164.764 28.0373 164.983 27.8453 165.143 27.6C165.314 27.3547 165.42 27.0773 165.463 26.768H167.623C167.58 27.472 167.372 28.0907 166.999 28.624C166.636 29.1467 166.151 29.5573 165.543 29.856C164.946 30.1547 164.263 30.304 163.495 30.304ZM175.485 30L172.573 25.936H171.277L174.973 21.312H177.293L173.885 25.584L173.933 24.464L177.997 30H175.485ZM169.405 30V18.32H171.629V30H169.405ZM184.813 30.08V28.256H187.741C188.274 28.256 188.679 28.112 188.957 27.824C189.234 27.5253 189.373 27.12 189.373 26.608C189.373 26.096 189.234 25.7013 188.957 25.424C188.679 25.136 188.274 24.992 187.741 24.992H184.813V23.6H187.581C188.359 23.6 189.053 23.696 189.661 23.888C190.279 24.0693 190.759 24.3787 191.101 24.816C191.453 25.2533 191.629 25.84 191.629 26.576V26.8C191.629 27.4933 191.474 28.0853 191.165 28.576C190.866 29.056 190.413 29.4293 189.805 29.696C189.207 29.952 188.466 30.08 187.581 30.08H184.813ZM182.909 30.08V18.24H185.133V30.08H182.909ZM184.813 24.624V23.232H187.309C187.853 23.232 188.253 23.088 188.509 22.8C188.765 22.512 188.893 22.128 188.893 21.648C188.893 21.168 188.765 20.784 188.509 20.496C188.253 20.208 187.853 20.064 187.309 20.064H184.813V18.24H187.101C188.423 18.24 189.426 18.5173 190.109 19.072C190.802 19.6267 191.149 20.4213 191.149 21.456V21.68C191.149 22.4053 190.973 22.9867 190.621 23.424C190.279 23.8507 189.805 24.16 189.197 24.352C188.589 24.5333 187.89 24.624 187.101 24.624H184.813ZM199.012 30V27.424H198.644V24.56C198.644 24.0587 198.522 23.6853 198.276 23.44C198.031 23.1947 197.652 23.072 197.14 23.072C196.874 23.072 196.554 23.0773 196.18 23.088C195.807 23.0987 195.428 23.1147 195.044 23.136C194.671 23.1467 194.335 23.1627 194.036 23.184V21.296C194.282 21.2747 194.559 21.2533 194.868 21.232C195.178 21.2107 195.492 21.2 195.812 21.2C196.143 21.1893 196.452 21.184 196.74 21.184C197.636 21.184 198.378 21.3013 198.964 21.536C199.562 21.7707 200.01 22.1387 200.308 22.64C200.618 23.1413 200.772 23.7973 200.772 24.608V30H199.012ZM196.212 30.224C195.583 30.224 195.028 30.112 194.548 29.888C194.079 29.664 193.711 29.344 193.444 28.928C193.188 28.512 193.06 28.0107 193.06 27.424C193.06 26.784 193.215 26.2613 193.524 25.856C193.844 25.4507 194.287 25.1467 194.852 24.944C195.428 24.7413 196.1 24.64 196.868 24.64H198.884V25.968H196.836C196.324 25.968 195.93 26.096 195.652 26.352C195.386 26.5973 195.252 26.9173 195.252 27.312C195.252 27.7067 195.386 28.0267 195.652 28.272C195.93 28.5173 196.324 28.64 196.836 28.64C197.146 28.64 197.428 28.5867 197.684 28.48C197.951 28.3627 198.17 28.1707 198.34 27.904C198.522 27.6267 198.623 27.2533 198.644 26.784L199.188 27.408C199.135 28.016 198.986 28.528 198.74 28.944C198.506 29.36 198.175 29.68 197.748 29.904C197.332 30.1173 196.82 30.224 196.212 30.224ZM203.267 30V18.32H205.491V30H203.267ZM202.179 19.984V18.32H205.491V19.984H202.179ZM213.294 30V27.424H212.926V24.56C212.926 24.0587 212.803 23.6853 212.558 23.44C212.312 23.1947 211.934 23.072 211.422 23.072C211.155 23.072 210.835 23.0773 210.462 23.088C210.088 23.0987 209.71 23.1147 209.326 23.136C208.952 23.1467 208.616 23.1627 208.318 23.184V21.296C208.563 21.2747 208.84 21.2533 209.15 21.232C209.459 21.2107 209.774 21.2 210.094 21.2C210.424 21.1893 210.734 21.184 211.022 21.184C211.918 21.184 212.659 21.3013 213.246 21.536C213.843 21.7707 214.291 22.1387 214.59 22.64C214.899 23.1413 215.054 23.7973 215.054 24.608V30H213.294ZM210.494 30.224C209.864 30.224 209.31 30.112 208.83 29.888C208.36 29.664 207.992 29.344 207.726 28.928C207.47 28.512 207.342 28.0107 207.342 27.424C207.342 26.784 207.496 26.2613 207.806 25.856C208.126 25.4507 208.568 25.1467 209.134 24.944C209.71 24.7413 210.382 24.64 211.15 24.64H213.166V25.968H211.118C210.606 25.968 210.211 26.096 209.934 26.352C209.667 26.5973 209.534 26.9173 209.534 27.312C209.534 27.7067 209.667 28.0267 209.934 28.272C210.211 28.5173 210.606 28.64 211.118 28.64C211.427 28.64 211.71 28.5867 211.966 28.48C212.232 28.3627 212.451 28.1707 212.622 27.904C212.803 27.6267 212.904 27.2533 212.926 26.784L213.47 27.408C213.416 28.016 213.267 28.528 213.022 28.944C212.787 29.36 212.456 29.68 212.03 29.904C211.614 30.1173 211.102 30.224 210.494 30.224ZM217.436 30V21.312H219.196V25.04H219.036C219.036 24.1547 219.153 23.4187 219.388 22.832C219.623 22.2347 219.969 21.7867 220.428 21.488C220.897 21.1893 221.479 21.04 222.172 21.04H222.268C223.303 21.04 224.087 21.376 224.62 22.048C225.153 22.7093 225.42 23.7013 225.42 25.024V30H223.196V24.832C223.196 24.2987 223.041 23.8667 222.732 23.536C222.433 23.2053 222.017 23.04 221.484 23.04C220.94 23.04 220.497 23.2107 220.156 23.552C219.825 23.8827 219.66 24.3307 219.66 24.896V30H217.436ZM231.667 30.304C230.91 30.304 230.254 30.176 229.699 29.92C229.155 29.664 228.696 29.3227 228.323 28.896C227.96 28.4693 227.688 27.9893 227.507 27.456C227.326 26.9227 227.235 26.3787 227.235 25.824V25.52C227.235 24.9333 227.326 24.3733 227.507 23.84C227.699 23.296 227.982 22.816 228.355 22.4C228.728 21.9733 229.187 21.6373 229.731 21.392C230.286 21.136 230.926 21.008 231.651 21.008C232.408 21.008 233.086 21.1573 233.683 21.456C234.28 21.744 234.755 22.1493 235.107 22.672C235.47 23.1947 235.672 23.8027 235.715 24.496H233.555C233.502 24.048 233.31 23.6747 232.979 23.376C232.659 23.0773 232.216 22.928 231.651 22.928C231.16 22.928 230.75 23.0453 230.419 23.28C230.099 23.5147 229.859 23.84 229.699 24.256C229.539 24.6613 229.459 25.1307 229.459 25.664C229.459 26.176 229.534 26.64 229.683 27.056C229.843 27.472 230.083 27.7973 230.403 28.032C230.734 28.2667 231.155 28.384 231.667 28.384C232.051 28.384 232.382 28.3147 232.659 28.176C232.936 28.0373 233.155 27.8453 233.315 27.6C233.486 27.3547 233.592 27.0773 233.635 26.768H235.795C235.752 27.472 235.544 28.0907 235.171 28.624C234.808 29.1467 234.323 29.5573 233.715 29.856C233.118 30.1547 232.435 30.304 231.667 30.304ZM241.465 30.304C240.718 30.304 240.062 30.176 239.497 29.92C238.942 29.664 238.478 29.3227 238.105 28.896C237.742 28.4587 237.465 27.9733 237.273 27.44C237.091 26.9067 237.001 26.3627 237.001 25.808V25.504C237.001 24.928 237.091 24.3733 237.273 23.84C237.465 23.296 237.742 22.816 238.105 22.4C238.478 21.9733 238.937 21.6373 239.481 21.392C240.025 21.136 240.654 21.008 241.369 21.008C242.307 21.008 243.091 21.216 243.721 21.632C244.361 22.0373 244.841 22.576 245.161 23.248C245.481 23.9093 245.641 24.624 245.641 25.392V26.192H237.945V24.832H244.249L243.561 25.504C243.561 24.9493 243.481 24.4747 243.321 24.08C243.161 23.6853 242.915 23.3813 242.585 23.168C242.265 22.9547 241.859 22.848 241.369 22.848C240.878 22.848 240.462 22.96 240.121 23.184C239.779 23.408 239.518 23.7333 239.337 24.16C239.166 24.576 239.081 25.0773 239.081 25.664C239.081 26.208 239.166 26.6933 239.337 27.12C239.507 27.536 239.769 27.8667 240.121 28.112C240.473 28.3467 240.921 28.464 241.465 28.464C242.009 28.464 242.451 28.3573 242.793 28.144C243.134 27.92 243.353 27.648 243.449 27.328H245.497C245.369 27.9253 245.123 28.448 244.76 28.896C244.398 29.344 243.934 29.6907 243.369 29.936C242.814 30.1813 242.179 30.304 241.465 30.304Z" fill="white"/>
<path d="M27.392 26.416V24.448H29.664C30.1227 24.448 30.5067 24.3573 30.816 24.176C31.136 23.9947 31.376 23.744 31.536 23.424C31.7067 23.104 31.792 22.736 31.792 22.32C31.792 21.904 31.7067 21.536 31.536 21.216C31.376 20.896 31.136 20.6507 30.816 20.48C30.5067 20.2987 30.1227 20.208 29.664 20.208H27.392V18.24H29.472C30.4533 18.24 31.2853 18.4 31.968 18.72C32.6613 19.04 33.1893 19.4987 33.552 20.096C33.9147 20.6827 34.096 21.3813 34.096 22.192V22.448C34.096 23.2587 33.9147 23.9627 33.552 24.56C33.1893 25.1467 32.6613 25.6053 31.968 25.936C31.2853 26.256 30.4533 26.416 29.472 26.416H27.392ZM25.44 30V18.24H27.712V30H25.44ZM40.9499 30V27.424H40.5819V24.56C40.5819 24.0587 40.4592 23.6853 40.2139 23.44C39.9685 23.1947 39.5899 23.072 39.0779 23.072C38.8112 23.072 38.4912 23.0773 38.1179 23.088C37.7445 23.0987 37.3659 23.1147 36.9819 23.136C36.6085 23.1467 36.2725 23.1627 35.9739 23.184V21.296C36.2192 21.2747 36.4965 21.2533 36.8059 21.232C37.1152 21.2107 37.4299 21.2 37.7499 21.2C38.0805 21.1893 38.3899 21.184 38.6779 21.184C39.5739 21.184 40.3152 21.3013 40.9019 21.536C41.4992 21.7707 41.9472 22.1387 42.2459 22.64C42.5552 23.1413 42.7099 23.7973 42.7099 24.608V30H40.9499ZM38.1499 30.224C37.5205 30.224 36.9659 30.112 36.4859 29.888C36.0165 29.664 35.6485 29.344 35.3819 28.928C35.1259 28.512 34.9979 28.0107 34.9979 27.424C34.9979 26.784 35.1525 26.2613 35.4619 25.856C35.7819 25.4507 36.2245 25.1467 36.7899 24.944C37.3659 24.7413 38.0379 24.64 38.8059 24.64H40.8219V25.968H38.7739C38.2619 25.968 37.8672 26.096 37.5899 26.352C37.3232 26.5973 37.1899 26.9173 37.1899 27.312C37.1899 27.7067 37.3232 28.0267 37.5899 28.272C37.8672 28.5173 38.2619 28.64 38.7739 28.64C39.0832 28.64 39.3659 28.5867 39.6219 28.48C39.8885 28.3627 40.1072 28.1707 40.2779 27.904C40.4592 27.6267 40.5605 27.2533 40.5819 26.784L41.1259 27.408C41.0725 28.016 40.9232 28.528 40.6779 28.944C40.4432 29.36 40.1125 29.68 39.6859 29.904C39.2699 30.1173 38.7579 30.224 38.1499 30.224ZM44.7268 33.424V31.52H46.3588C46.6681 31.52 46.9241 31.4773 47.1268 31.392C47.3401 31.3173 47.5161 31.1893 47.6548 31.008C47.7934 30.8373 47.9001 30.5973 47.9748 30.288L50.3108 21.312H52.4388L49.8628 30.768C49.6921 31.4187 49.4521 31.936 49.1428 32.32C48.8334 32.7147 48.4334 32.9973 47.9427 33.168C47.4628 33.3387 46.8654 33.424 46.1508 33.424H44.7268ZM47.4308 29.808V28.048H49.2868V29.808H47.4308ZM46.6788 29.808L43.8628 21.312H46.1028L48.7748 29.808H46.6788ZM60.3963 30L62.0443 21.6H64.6042L66.5083 30H64.7483L62.8123 21.648H63.7403L62.0283 30H60.3963ZM59.7403 30L59.7243 28.176H61.5003V30H59.7403ZM58.8443 30L56.4763 21.312H58.6363L60.8923 30H58.8443ZM65.3083 30V28.176H67.0843L67.0683 30H65.3083ZM66.0123 30L68.0123 21.312H70.0283L67.9323 30H66.0123ZM72.1956 30V21.312H74.4196V30H72.1956ZM70.9796 22.976V21.312H74.4196V22.976H70.9796ZM73.0116 20.272C72.5743 20.272 72.249 20.16 72.0356 19.936C71.833 19.7013 71.7316 19.4133 71.7316 19.072C71.7316 18.7093 71.833 18.416 72.0356 18.192C72.249 17.968 72.5743 17.856 73.0116 17.856C73.449 17.856 73.769 17.968 73.9716 18.192C74.1743 18.416 74.2756 18.7093 74.2756 19.072C74.2756 19.4133 74.1743 19.7013 73.9716 19.936C73.769 20.16 73.449 20.272 73.0116 20.272ZM80.7588 30.112C79.9588 30.112 79.2974 30.0107 78.7748 29.808C78.2628 29.5947 77.8788 29.2427 77.6228 28.752C77.3668 28.2507 77.2388 27.5787 77.2388 26.736L77.2548 18.864H79.3348L79.3188 26.88C79.3188 27.3067 79.4308 27.6373 79.6548 27.872C79.8894 28.096 80.2201 28.208 80.6468 28.208H82.0068V30.112H80.7588ZM75.8628 22.944V21.312H82.0068V22.944H75.8628ZM83.8734 30V18.32H86.0974V25.136H85.7134C85.7134 24.2613 85.8254 23.52 86.0494 22.912C86.2734 22.304 86.604 21.84 87.0414 21.52C87.4894 21.2 88.0547 21.04 88.7374 21.04H88.8334C89.8254 21.04 90.5774 21.3813 91.0894 22.064C91.6014 22.7467 91.8574 23.7387 91.8574 25.04V30H89.6334V24.832C89.6334 24.2773 89.4734 23.84 89.1534 23.52C88.844 23.2 88.4334 23.04 87.9214 23.04C87.3774 23.04 86.9347 23.2213 86.5934 23.584C86.2627 23.936 86.0974 24.4 86.0974 24.976V30H83.8734ZM103.142 30.304C102.086 30.304 101.179 30.1173 100.422 29.744C99.6642 29.3707 99.0455 28.8853 98.5655 28.288C98.0962 27.6907 97.7495 27.04 97.5255 26.336C97.3015 25.632 97.1895 24.9547 97.1895 24.304V23.952C97.1895 23.2267 97.3015 22.512 97.5255 21.808C97.7602 21.104 98.1175 20.464 98.5975 19.888C99.0775 19.312 99.6855 18.8533 100.422 18.512C101.168 18.16 102.048 17.984 103.062 17.984C104.118 17.984 105.035 18.176 105.814 18.56C106.603 18.9333 107.232 19.4667 107.702 20.16C108.171 20.8427 108.454 21.6427 108.55 22.56H106.262C106.176 22.0267 105.984 21.5787 105.686 21.216C105.398 20.8427 105.03 20.5653 104.582 20.384C104.134 20.192 103.627 20.096 103.062 20.096C102.486 20.096 101.974 20.1973 101.526 20.4C101.078 20.592 100.704 20.8693 100.406 21.232C100.107 21.5947 99.8775 22.0213 99.7175 22.512C99.5682 23.0027 99.4935 23.5467 99.4935 24.144C99.4935 24.72 99.5682 25.2533 99.7175 25.744C99.8775 26.2347 100.112 26.6667 100.422 27.04C100.731 27.4027 101.11 27.6853 101.558 27.888C102.016 28.0907 102.544 28.192 103.142 28.192C104.016 28.192 104.752 27.9787 105.35 27.552C105.958 27.1147 106.326 26.5067 106.454 25.728H108.742C108.635 26.56 108.352 27.3227 107.894 28.016C107.435 28.7093 106.806 29.264 106.006 29.68C105.206 30.096 104.251 30.304 103.142 30.304ZM115.747 30V27.424H115.379V24.56C115.379 24.0587 115.256 23.6853 115.011 23.44C114.765 23.1947 114.387 23.072 113.875 23.072C113.608 23.072 113.288 23.0773 112.915 23.088C112.541 23.0987 112.163 23.1147 111.779 23.136C111.405 23.1467 111.069 23.1627 110.771 23.184V21.296C111.016 21.2747 111.293 21.2533 111.603 21.232C111.912 21.2107 112.227 21.2 112.547 21.2C112.877 21.1893 113.187 21.184 113.475 21.184C114.371 21.184 115.112 21.3013 115.699 21.536C116.296 21.7707 116.744 22.1387 117.043 22.64C117.352 23.1413 117.507 23.7973 117.507 24.608V30H115.747ZM112.947 30.224C112.317 30.224 111.763 30.112 111.283 29.888C110.813 29.664 110.445 29.344 110.179 28.928C109.923 28.512 109.795 28.0107 109.795 27.424C109.795 26.784 109.949 26.2613 110.259 25.856C110.579 25.4507 111.021 25.1467 111.587 24.944C112.163 24.7413 112.835 24.64 113.603 24.64H115.619V25.968H113.571C113.059 25.968 112.664 26.096 112.387 26.352C112.12 26.5973 111.987 26.9173 111.987 27.312C111.987 27.7067 112.12 28.0267 112.387 28.272C112.664 28.5173 113.059 28.64 113.571 28.64C113.88 28.64 114.163 28.5867 114.419 28.48C114.685 28.3627 114.904 28.1707 115.075 27.904C115.256 27.6267 115.357 27.2533 115.379 26.784L115.923 27.408C115.869 28.016 115.72 28.528 115.475 28.944C115.24 29.36 114.909 29.68 114.483 29.904C114.067 30.1173 113.555 30.224 112.947 30.224ZM123.041 30.272C121.846 30.272 120.908 30.0213 120.225 29.52C119.553 29.008 119.201 28.304 119.169 27.408H121.169C121.201 27.7067 121.366 27.9787 121.665 28.224C121.964 28.4693 122.433 28.592 123.073 28.592C123.606 28.592 124.028 28.496 124.337 28.304C124.657 28.112 124.817 27.8507 124.817 27.52C124.817 27.232 124.694 27.0027 124.449 26.832C124.214 26.6613 123.809 26.5493 123.233 26.496L122.465 26.416C121.494 26.3093 120.748 26.032 120.225 25.584C119.702 25.136 119.441 24.5387 119.441 23.792C119.441 23.1947 119.59 22.6933 119.889 22.288C120.188 21.8827 120.598 21.5787 121.121 21.376C121.654 21.1627 122.262 21.056 122.945 21.056C124.012 21.056 124.876 21.2907 125.537 21.76C126.198 22.2293 126.545 22.9173 126.577 23.824H124.577C124.556 23.5253 124.406 23.2693 124.129 23.056C123.852 22.8427 123.452 22.736 122.929 22.736C122.46 22.736 122.097 22.8267 121.841 23.008C121.585 23.1893 121.457 23.424 121.457 23.712C121.457 23.9893 121.558 24.2027 121.761 24.352C121.974 24.5013 122.316 24.6027 122.785 24.656L123.553 24.736C124.577 24.8427 125.377 25.1253 125.953 25.584C126.54 26.0427 126.833 26.6613 126.833 27.44C126.833 28.016 126.673 28.5173 126.353 28.944C126.044 29.36 125.606 29.6853 125.041 29.92C124.476 30.1547 123.809 30.272 123.041 30.272ZM128.67 30V18.32H130.894V25.136H130.51C130.51 24.2613 130.622 23.52 130.846 22.912C131.07 22.304 131.401 21.84 131.838 21.52C132.286 21.2 132.852 21.04 133.534 21.04H133.63C134.622 21.04 135.374 21.3813 135.886 22.064C136.398 22.7467 136.654 23.7387 136.654 25.04V30H134.43V24.832C134.43 24.2773 134.27 23.84 133.95 23.52C133.641 23.2 133.23 23.04 132.718 23.04C132.174 23.04 131.732 23.2213 131.39 23.584C131.06 23.936 130.894 24.4 130.894 24.976V30H128.67ZM144.149 30.288C143.435 30.288 142.805 30.1387 142.261 29.84C141.717 29.5307 141.291 29.0827 140.981 28.496C140.672 27.9093 140.501 27.2 140.469 26.368H140.805V30H139.045V18.32H141.269V24.16L140.677 25.072C140.72 24.176 140.896 23.4293 141.205 22.832C141.525 22.2347 141.952 21.7867 142.485 21.488C143.019 21.1893 143.621 21.04 144.293 21.04C144.891 21.04 145.435 21.152 145.925 21.376C146.416 21.6 146.837 21.9147 147.189 22.32C147.541 22.7147 147.808 23.1787 147.989 23.712C148.181 24.2453 148.277 24.8267 148.277 25.456V25.792C148.277 26.4213 148.181 27.008 147.989 27.552C147.797 28.096 147.52 28.576 147.157 28.992C146.795 29.3973 146.357 29.7173 145.845 29.952C145.344 30.176 144.779 30.288 144.149 30.288ZM143.653 28.416C144.133 28.416 144.549 28.2987 144.901 28.064C145.264 27.8187 145.547 27.488 145.749 27.072C145.952 26.656 146.053 26.176 146.053 25.632C146.053 25.0773 145.952 24.5973 145.749 24.192C145.547 23.7867 145.264 23.472 144.901 23.248C144.549 23.024 144.133 22.912 143.653 22.912C143.216 22.912 142.811 23.008 142.437 23.2C142.075 23.392 141.776 23.6747 141.541 24.048C141.317 24.4213 141.205 24.8693 141.205 25.392V26.032C141.205 26.5333 141.323 26.96 141.557 27.312C141.792 27.664 142.096 27.936 142.469 28.128C142.843 28.32 143.237 28.416 143.653 28.416ZM155.497 30V27.424H155.129V24.56C155.129 24.0587 155.006 23.6853 154.761 23.44C154.515 23.1947 154.137 23.072 153.625 23.072C153.358 23.072 153.038 23.0773 152.665 23.088C152.291 23.0987 151.913 23.1147 151.529 23.136C151.155 23.1467 150.819 23.1627 150.521 23.184V21.296C150.766 21.2747 151.043 21.2533 151.353 21.232C151.662 21.2107 151.977 21.2 152.297 21.2C152.627 21.1893 152.937 21.184 153.225 21.184C154.121 21.184 154.862 21.3013 155.449 21.536C156.046 21.7707 156.494 22.1387 156.793 22.64C157.102 23.1413 157.257 23.7973 157.257 24.608V30H155.497ZM152.697 30.224C152.067 30.224 151.513 30.112 151.033 29.888C150.563 29.664 150.195 29.344 149.929 28.928C149.673 28.512 149.545 28.0107 149.545 27.424C149.545 26.784 149.699 26.2613 150.009 25.856C150.329 25.4507 150.771 25.1467 151.337 24.944C151.913 24.7413 152.585 24.64 153.353 24.64H155.369V25.968H153.321C152.809 25.968 152.414 26.096 152.137 26.352C151.87 26.5973 151.737 26.9173 151.737 27.312C151.737 27.7067 151.87 28.0267 152.137 28.272C152.414 28.5173 152.809 28.64 153.321 28.64C153.63 28.64 153.913 28.5867 154.169 28.48C154.435 28.3627 154.654 28.1707 154.825 27.904C155.006 27.6267 155.107 27.2533 155.129 26.784L155.673 27.408C155.619 28.016 155.47 28.528 155.225 28.944C154.99 29.36 154.659 29.68 154.233 29.904C153.817 30.1173 153.305 30.224 152.697 30.224ZM163.495 30.304C162.738 30.304 162.082 30.176 161.527 29.92C160.983 29.664 160.524 29.3227 160.151 28.896C159.788 28.4693 159.516 27.9893 159.335 27.456C159.154 26.9227 159.063 26.3787 159.063 25.824V25.52C159.063 24.9333 159.154 24.3733 159.335 23.84C159.527 23.296 159.81 22.816 160.183 22.4C160.556 21.9733 161.015 21.6373 161.559 21.392C162.114 21.136 162.754 21.008 163.479 21.008C164.236 21.008 164.914 21.1573 165.511 21.456C166.108 21.744 166.583 22.1493 166.935 22.672C167.298 23.1947 167.5 23.8027 167.543 24.496H165.383C165.33 24.048 165.138 23.6747 164.807 23.376C164.487 23.0773 164.044 22.928 163.479 22.928C162.988 22.928 162.578 23.0453 162.247 23.28C161.927 23.5147 161.687 23.84 161.527 24.256C161.367 24.6613 161.287 25.1307 161.287 25.664C161.287 26.176 161.362 26.64 161.511 27.056C161.671 27.472 161.911 27.7973 162.231 28.032C162.562 28.2667 162.983 28.384 163.495 28.384C163.879 28.384 164.21 28.3147 164.487 28.176C164.764 28.0373 164.983 27.8453 165.143 27.6C165.314 27.3547 165.42 27.0773 165.463 26.768H167.623C167.58 27.472 167.372 28.0907 166.999 28.624C166.636 29.1467 166.151 29.5573 165.543 29.856C164.946 30.1547 164.263 30.304 163.495 30.304ZM175.485 30L172.573 25.936H171.277L174.973 21.312H177.293L173.885 25.584L173.933 24.464L177.997 30H175.485ZM169.405 30V18.32H171.629V30H169.405ZM184.813 30.08V28.256H187.741C188.274 28.256 188.679 28.112 188.957 27.824C189.234 27.5253 189.373 27.12 189.373 26.608C189.373 26.096 189.234 25.7013 188.957 25.424C188.679 25.136 188.274 24.992 187.741 24.992H184.813V23.6H187.581C188.359 23.6 189.053 23.696 189.661 23.888C190.279 24.0693 190.759 24.3787 191.101 24.816C191.453 25.2533 191.629 25.84 191.629 26.576V26.8C191.629 27.4933 191.474 28.0853 191.165 28.576C190.866 29.056 190.413 29.4293 189.805 29.696C189.207 29.952 188.466 30.08 187.581 30.08H184.813ZM182.909 30.08V18.24H185.133V30.08H182.909ZM184.813 24.624V23.232H187.309C187.853 23.232 188.253 23.088 188.509 22.8C188.765 22.512 188.893 22.128 188.893 21.648C188.893 21.168 188.765 20.784 188.509 20.496C188.253 20.208 187.853 20.064 187.309 20.064H184.813V18.24H187.101C188.423 18.24 189.426 18.5173 190.109 19.072C190.802 19.6267 191.149 20.4213 191.149 21.456V21.68C191.149 22.4053 190.973 22.9867 190.621 23.424C190.279 23.8507 189.805 24.16 189.197 24.352C188.589 24.5333 187.89 24.624 187.101 24.624H184.813ZM199.012 30V27.424H198.644V24.56C198.644 24.0587 198.522 23.6853 198.276 23.44C198.031 23.1947 197.652 23.072 197.14 23.072C196.874 23.072 196.554 23.0773 196.18 23.088C195.807 23.0987 195.428 23.1147 195.044 23.136C194.671 23.1467 194.335 23.1627 194.036 23.184V21.296C194.282 21.2747 194.559 21.2533 194.868 21.232C195.178 21.2107 195.492 21.2 195.812 21.2C196.143 21.1893 196.452 21.184 196.74 21.184C197.636 21.184 198.378 21.3013 198.964 21.536C199.562 21.7707 200.01 22.1387 200.308 22.64C200.618 23.1413 200.772 23.7973 200.772 24.608V30H199.012ZM196.212 30.224C195.583 30.224 195.028 30.112 194.548 29.888C194.079 29.664 193.711 29.344 193.444 28.928C193.188 28.512 193.06 28.0107 193.06 27.424C193.06 26.784 193.215 26.2613 193.524 25.856C193.844 25.4507 194.287 25.1467 194.852 24.944C195.428 24.7413 196.1 24.64 196.868 24.64H198.884V25.968H196.836C196.324 25.968 195.93 26.096 195.652 26.352C195.386 26.5973 195.252 26.9173 195.252 27.312C195.252 27.7067 195.386 28.0267 195.652 28.272C195.93 28.5173 196.324 28.64 196.836 28.64C197.146 28.64 197.428 28.5867 197.684 28.48C197.951 28.3627 198.17 28.1707 198.34 27.904C198.522 27.6267 198.623 27.2533 198.644 26.784L199.188 27.408C199.135 28.016 198.986 28.528 198.74 28.944C198.506 29.36 198.175 29.68 197.748 29.904C197.332 30.1173 196.82 30.224 196.212 30.224ZM203.267 30V18.32H205.491V30H203.267ZM202.179 19.984V18.32H205.491V19.984H202.179ZM213.294 30V27.424H212.926V24.56C212.926 24.0587 212.803 23.6853 212.558 23.44C212.312 23.1947 211.934 23.072 211.422 23.072C211.155 23.072 210.835 23.0773 210.462 23.088C210.088 23.0987 209.71 23.1147 209.326 23.136C208.952 23.1467 208.616 23.1627 208.318 23.184V21.296C208.563 21.2747 208.84 21.2533 209.15 21.232C209.459 21.2107 209.774 21.2 210.094 21.2C210.424 21.1893 210.734 21.184 211.022 21.184C211.918 21.184 212.659 21.3013 213.246 21.536C213.843 21.7707 214.291 22.1387 214.59 22.64C214.899 23.1413 215.054 23.7973 215.054 24.608V30H213.294ZM210.494 30.224C209.864 30.224 209.31 30.112 208.83 29.888C208.36 29.664 207.992 29.344 207.726 28.928C207.47 28.512 207.342 28.0107 207.342 27.424C207.342 26.784 207.496 26.2613 207.806 25.856C208.126 25.4507 208.568 25.1467 209.134 24.944C209.71 24.7413 210.382 24.64 211.15 24.64H213.166V25.968H211.118C210.606 25.968 210.211 26.096 209.934 26.352C209.667 26.5973 209.534 26.9173 209.534 27.312C209.534 27.7067 209.667 28.0267 209.934 28.272C210.211 28.5173 210.606 28.64 211.118 28.64C211.427 28.64 211.71 28.5867 211.966 28.48C212.232 28.3627 212.451 28.1707 212.622 27.904C212.803 27.6267 212.904 27.2533 212.926 26.784L213.47 27.408C213.416 28.016 213.267 28.528 213.022 28.944C212.787 29.36 212.456 29.68 212.03 29.904C211.614 30.1173 211.102 30.224 210.494 30.224ZM217.436 30V21.312H219.196V25.04H219.036C219.036 24.1547 219.153 23.4187 219.388 22.832C219.623 22.2347 219.969 21.7867 220.428 21.488C220.897 21.1893 221.479 21.04 222.172 21.04H222.268C223.303 21.04 224.087 21.376 224.62 22.048C225.153 22.7093 225.42 23.7013 225.42 25.024V30H223.196V24.832C223.196 24.2987 223.041 23.8667 222.732 23.536C222.433 23.2053 222.017 23.04 221.484 23.04C220.94 23.04 220.497 23.2107 220.156 23.552C219.825 23.8827 219.66 24.3307 219.66 24.896V30H217.436ZM231.667 30.304C230.91 30.304 230.254 30.176 229.699 29.92C229.155 29.664 228.696 29.3227 228.323 28.896C227.96 28.4693 227.688 27.9893 227.507 27.456C227.326 26.9227 227.235 26.3787 227.235 25.824V25.52C227.235 24.9333 227.326 24.3733 227.507 23.84C227.699 23.296 227.982 22.816 228.355 22.4C228.728 21.9733 229.187 21.6373 229.731 21.392C230.286 21.136 230.926 21.008 231.651 21.008C232.408 21.008 233.086 21.1573 233.683 21.456C234.28 21.744 234.755 22.1493 235.107 22.672C235.47 23.1947 235.672 23.8027 235.715 24.496H233.555C233.502 24.048 233.31 23.6747 232.979 23.376C232.659 23.0773 232.216 22.928 231.651 22.928C231.16 22.928 230.75 23.0453 230.419 23.28C230.099 23.5147 229.859 23.84 229.699 24.256C229.539 24.6613 229.459 25.1307 229.459 25.664C229.459 26.176 229.534 26.64 229.683 27.056C229.843 27.472 230.083 27.7973 230.403 28.032C230.734 28.2667 231.155 28.384 231.667 28.384C232.051 28.384 232.382 28.3147 232.659 28.176C232.936 28.0373 233.155 27.8453 233.315 27.6C233.486 27.3547 233.592 27.0773 233.635 26.768H235.795C235.752 27.472 235.544 28.0907 235.171 28.624C234.808 29.1467 234.323 29.5573 233.715 29.856C233.118 30.1547 232.435 30.304 231.667 30.304ZM241.465 30.304C240.718 30.304 240.062 30.176 239.497 29.92C238.942 29.664 238.478 29.3227 238.105 28.896C237.742 28.4587 237.465 27.9733 237.273 27.44C237.091 26.9067 237.001 26.3627 237.001 25.808V25.504C237.001 24.928 237.091 24.3733 237.273 23.84C237.465 23.296 237.742 22.816 238.105 22.4C238.478 21.9733 238.937 21.6373 239.481 21.392C240.025 21.136 240.654 21.008 241.369 21.008C242.307 21.008 243.091 21.216 243.721 21.632C244.361 22.0373 244.841 22.576 245.161 23.248C245.481 23.9093 245.641 24.624 245.641 25.392V26.192H237.945V24.832H244.249L243.561 25.504C243.561 24.9493 243.481 24.4747 243.321 24.08C243.161 23.6853 242.915 23.3813 242.585 23.168C242.265 22.9547 241.859 22.848 241.369 22.848C240.878 22.848 240.462 22.96 240.121 23.184C239.779 23.408 239.518 23.7333 239.337 24.16C239.166 24.576 239.081 25.0773 239.081 25.664C239.081 26.208 239.166 26.6933 239.337 27.12C239.507 27.536 239.769 27.8667 240.121 28.112C240.473 28.3467 240.921 28.464 241.465 28.464C242.009 28.464 242.451 28.3573 242.793 28.144C243.134 27.92 243.353 27.648 243.449 27.328H245.497C245.369 27.9253 245.123 28.448 244.76 28.896C244.398 29.344 243.934 29.6907 243.369 29.936C242.814 30.1813 242.179 30.304 241.465 30.304Z" fill="url(#paint0_linear_162_1887)"/>
<rect x="0.5" y="1" width="270" height="48" rx="4.5" stroke="black"/>
<rect x="0.5" y="1" width="270" height="48" rx="4.5" stroke="url(#paint1_linear_162_1887)"/>
<defs>
<linearGradient id="paint0_linear_162_1887" x1="24" y1="17.5362" x2="32.9048" y2="70.7959" gradientUnits="userSpaceOnUse">
<stop stop-color="#409099"/>
<stop offset="1" stop-color="#84E681"/>
</linearGradient>
<linearGradient id="paint1_linear_162_1887" x1="2.29202e-06" y1="6.71363" x2="40.6003" y2="127.162" gradientUnits="userSpaceOnUse">
<stop stop-color="#409099"/>
<stop offset="1" stop-color="#84E681"/>
</linearGradient>
</defs>
</svg>
