<svg width="11" height="18" viewBox="0 0 11 18" fill="none" xmlns="http://www.w3.org/2000/svg">
<path d="M5.59352 15.0525C4.49701 15.0525 3.57547 14.8892 2.82891 14.5626C2.09401 14.2243 1.53409 13.7518 1.14915 13.1453C0.775866 12.527 0.589226 11.7979 0.589226 10.9581H2.82891C2.82891 11.3197 2.92223 11.6638 3.10887 11.9904C3.29551 12.317 3.58714 12.5853 3.98375 12.7953C4.39203 12.9936 4.92862 13.0928 5.59352 13.0928C6.4684 13.0928 7.13331 12.9236 7.58824 12.5853C8.04318 12.2471 8.27065 11.8271 8.27065 11.3255C8.27065 10.8706 8.07234 10.4915 7.67573 10.1882C7.29079 9.88488 6.69004 9.69824 5.87349 9.62825L4.89362 9.54077C3.69212 9.42411 2.73559 9.0625 2.02402 8.45592C1.31246 7.83767 0.956674 6.96279 0.956674 5.83128C0.956674 5.04973 1.13165 4.39065 1.4816 3.85406C1.84322 3.31747 2.35648 2.91503 3.02138 2.64673C3.69796 2.36677 4.49701 2.22679 5.41855 2.22679C6.37508 2.22679 7.1858 2.38427 7.85071 2.69922C8.52728 3.01418 9.04054 3.46912 9.39049 4.06403C9.75211 4.64728 9.93292 5.35885 9.93292 6.19873H7.69323C7.69323 5.83712 7.60574 5.50466 7.43077 5.20137C7.26746 4.89808 7.01666 4.65312 6.67837 4.46648C6.35175 4.27984 5.93181 4.18652 5.41855 4.18652C4.95195 4.18652 4.55534 4.25651 4.22872 4.39649C3.90209 4.53647 3.6513 4.72894 3.47632 4.97391C3.30135 5.21887 3.21386 5.50466 3.21386 5.83128C3.21386 6.23956 3.35967 6.60118 3.6513 6.91613C3.95459 7.23109 4.43869 7.41773 5.10359 7.47605L6.08346 7.56354C7.42493 7.68019 8.49812 8.05347 9.303 8.68338C10.1196 9.3133 10.5278 10.194 10.5278 11.3255C10.5278 12.1071 10.3295 12.7778 9.93292 13.3377C9.54797 13.886 8.98805 14.3118 8.25315 14.6151C7.51825 14.9067 6.63171 15.0525 5.59352 15.0525ZM4.52617 17.2572V14.7025H6.55589V17.2572H4.52617ZM4.45618 3.08417V0.529528H6.4859V3.08417H4.45618Z" fill="black"/>
</svg>
