<svg width="58" height="59" viewBox="0 0 58 59" fill="none" xmlns="http://www.w3.org/2000/svg">
<path d="M43.4287 9.42508V49.1485C43.4287 51.1429 41.8119 52.7597 39.8175 52.7597H18.1502C16.1558 52.7597 14.539 51.1429 14.539 49.1485L14.539 9.42508C14.539 7.43066 16.1558 5.81386 18.1502 5.81386H39.8175C41.8119 5.81386 43.4287 7.43066 43.4287 9.42508Z" stroke="#356D73" stroke-width="1.71622" stroke-linecap="round" stroke-linejoin="round"/>
<path d="M28.9838 41.9261C30.4796 41.9261 31.6922 43.1387 31.6922 44.6345C31.6922 46.1304 30.4796 47.343 28.9838 47.343C27.488 47.343 26.2754 46.1304 26.2754 44.6345C26.2754 43.1387 27.488 41.9261 28.9838 41.9261Z" fill="#356D73"/>
<path d="M30.9844 20.9918V31.8612" stroke="#356D73" stroke-width="1.14415" stroke-linecap="round" stroke-linejoin="round"/>
<path d="M33.8446 19.5114V31.289C33.8446 31.4407 33.7843 31.5862 33.677 31.6935C33.5698 31.8008 33.4242 31.8611 33.2725 31.8611H21.4949C21.3815 31.8609 21.2707 31.827 21.1766 31.7637C21.0825 31.7003 21.0093 31.6105 20.9664 31.5055C20.9234 31.4005 20.9127 31.2851 20.9355 31.1739C20.9583 31.0628 21.0137 30.961 21.0945 30.8814L32.8649 19.111C32.9445 19.0302 33.0463 18.9748 33.1575 18.952C33.2686 18.9292 33.384 18.9399 33.489 18.9828C33.594 19.0258 33.6839 19.0989 33.7472 19.193C33.8105 19.2872 33.8444 19.398 33.8446 19.5114Z" stroke="#356D73" stroke-width="1.14415" stroke-linecap="round" stroke-linejoin="round"/>
<path d="M28.124 23.8519V31.861" stroke="#356D73" stroke-width="1.14415" stroke-linecap="round" stroke-linejoin="round"/>
<path d="M25.2637 26.7123V31.8609" stroke="#356D73" stroke-width="1.14415" stroke-linecap="round" stroke-linejoin="round"/>
</svg>
