<svg width="59" height="59" viewBox="0 0 59 59" fill="none" xmlns="http://www.w3.org/2000/svg">
<path d="M29.2943 50.9545C41.2608 50.9545 50.9616 41.2537 50.9616 29.2872C50.9616 17.3207 41.2608 7.61987 29.2943 7.61987C17.3277 7.61987 7.62695 17.3207 7.62695 29.2872C7.62695 41.2537 17.3277 50.9545 29.2943 50.9545Z" stroke="#356D73" stroke-width="1.71622" stroke-miterlimit="10"/>
<path d="M8.86816 22.0648H49.7201" stroke="#356D73" stroke-width="1.71622" stroke-linecap="round" stroke-linejoin="round"/>
<path d="M8.86816 36.5099H49.7201" stroke="#356D73" stroke-width="1.71622" stroke-linecap="round" stroke-linejoin="round"/>
<path d="M29.2946 50.3676C34.2807 50.3676 38.3227 40.9295 38.3227 29.2871C38.3227 17.6447 34.2807 8.2066 29.2946 8.2066C24.3086 8.2066 20.2666 17.6447 20.2666 29.2871C20.2666 40.9295 24.3086 50.3676 29.2946 50.3676Z" stroke="#356D73" stroke-width="1.71622" stroke-miterlimit="10"/>
</svg>
