<svg width="58" height="59" viewBox="0 0 58 59" fill="none" xmlns="http://www.w3.org/2000/svg">
<path d="M19.9541 52.8022H38.0102" stroke="#356D73" stroke-width="1.71622" stroke-linecap="round" stroke-linejoin="round"/>
<path d="M17.855 38.1319C15.7054 36.4604 13.9644 34.3217 12.7639 31.8777C11.5634 29.4337 10.9349 26.7485 10.926 24.0255C10.8808 14.2301 18.7578 6.08228 28.5532 5.85658C32.3443 5.76671 36.0674 6.87269 39.1945 9.01767C42.3217 11.1627 44.6941 14.2377 45.9754 17.8068C47.2566 21.3759 47.3817 25.2578 46.3328 28.9019C45.2839 32.5461 43.1143 35.7675 40.1317 38.1093C39.4729 38.6186 38.9392 39.2718 38.5715 40.0189C38.2038 40.7661 38.0117 41.5874 38.0101 42.4202V43.7744C38.0101 44.2533 37.8199 44.7125 37.4813 45.0512C37.1427 45.3898 36.6834 45.58 36.2045 45.58H21.7596C21.2808 45.58 20.8215 45.3898 20.4829 45.0512C20.1443 44.7125 19.954 44.2533 19.954 43.7744V42.4202C19.9484 41.5937 19.7568 40.7791 19.3934 40.0367C19.03 39.2944 18.5042 38.6433 17.855 38.1319Z" stroke="#356D73" stroke-width="1.71622" stroke-linecap="round" stroke-linejoin="round"/>
<path d="M30.8105 13.2596C33.0174 13.6337 35.0537 14.6835 36.6385 16.2643C38.2232 17.845 39.2783 19.8786 39.658 22.0845" stroke="#356D73" stroke-width="1.71622" stroke-linecap="round" stroke-linejoin="round"/>
</svg>
