<svg xmlns="http://www.w3.org/2000/svg" width="22" height="22" viewBox="0 0 22 22" fill="none">
  <path d="M11.2354 11.276C12.6914 11.276 13.8717 10.0957 13.8717 8.63966C13.8717 7.18364 12.6914 6.0033 11.2354 6.0033C9.77934 6.0033 8.599 7.18364 8.599 8.63966C8.599 10.0957 9.77934 11.276 11.2354 11.276Z" stroke="url(#paint0_linear_2_2986)" stroke-width="1.31818" stroke-linecap="round" stroke-linejoin="round"/>
  <path d="M17.8262 8.63974C17.8262 14.5716 11.2353 19.1852 11.2353 19.1852C11.2353 19.1852 4.64441 14.5716 4.64441 8.63974C4.64441 6.89172 5.33881 5.2153 6.57484 3.97926C7.81088 2.74323 9.4873 2.04883 11.2353 2.04883C12.9833 2.04883 14.6598 2.74323 15.8958 3.97926C17.1318 5.2153 17.8262 6.89172 17.8262 8.63974Z" stroke="url(#paint1_linear_2_2986)" stroke-width="1.31818" stroke-linecap="round" stroke-linejoin="round"/>
  <defs>
    <linearGradient id="paint0_linear_2_2986" x1="8.599" y1="6.67192" x2="14.6114" y2="9.89706" gradientUnits="userSpaceOnUse">
      <stop stop-color="#409099"/>
      <stop offset="1" stop-color="#84E681"/>
    </linearGradient>
    <linearGradient id="paint1_linear_2_2986" x1="4.64441" y1="4.22187" x2="21.1844" y2="11.0467" gradientUnits="userSpaceOnUse">
      <stop stop-color="#409099"/>
      <stop offset="1" stop-color="#84E681"/>
    </linearGradient>
  </defs>
</svg>