<svg width="14" height="18" viewBox="0 0 14 18" fill="none" xmlns="http://www.w3.org/2000/svg">
<path d="M2.112 18V11.832H0.24V10.296H2.112V8.328H0.24V6.792H2.112V0.863999H4.608L6.888 6.792H9.72V0.863999H11.616V6.792H13.488V8.328H11.616V10.296H13.488V11.832H11.616V18H9.096L6.816 11.832H3.984V18H2.112ZM3.984 10.296H6.24L5.52 8.328H3.936L3.984 10.296ZM9.72 14.616H9.816L9.744 11.832H8.736L9.72 14.616ZM3.936 6.792H4.944L3.936 3.816H3.84L3.936 6.792ZM8.16 10.296H9.768L9.72 8.328H7.44L8.16 10.296Z" fill="#2C2C2C"/>
</svg>
