<svg width="251" height="50" viewBox="0 0 251 50" fill="none" xmlns="http://www.w3.org/2000/svg">
<rect width="251" height="50" rx="5" fill="black"/>
<rect width="251" height="50" rx="5" fill="url(#paint0_linear_162_1892)"/>
<g clip-path="url(#clip0_162_1892)">
<path d="M61.4688 12.1875H67.875V18.5938" stroke="white" stroke-width="2" stroke-linecap="round" stroke-linejoin="round"/>
<path d="M43.5312 37.8125H37.125V31.4062" stroke="white" stroke-width="2" stroke-linecap="round" stroke-linejoin="round"/>
<path d="M67.875 31.4062V37.8125H61.4688" stroke="white" stroke-width="2" stroke-linecap="round" stroke-linejoin="round"/>
<path d="M37.125 18.5938V12.1875H43.5312" stroke="white" stroke-width="2" stroke-linecap="round" stroke-linejoin="round"/>
<path d="M44.8125 18.5938V31.4062" stroke="white" stroke-width="2" stroke-linecap="round" stroke-linejoin="round"/>
<path d="M60.1875 18.5938V31.4062" stroke="white" stroke-width="2" stroke-linecap="round" stroke-linejoin="round"/>
<path d="M55.0625 18.5938V31.4062" stroke="white" stroke-width="2" stroke-linecap="round" stroke-linejoin="round"/>
<path d="M49.9375 18.5938V31.4062" stroke="white" stroke-width="2" stroke-linecap="round" stroke-linejoin="round"/>
</g>
<path d="M86.392 26.416V24.448H88.664C89.1227 24.448 89.5067 24.3573 89.816 24.176C90.136 23.9947 90.376 23.744 90.536 23.424C90.7067 23.104 90.792 22.736 90.792 22.32C90.792 21.904 90.7067 21.536 90.536 21.216C90.376 20.896 90.136 20.6507 89.816 20.48C89.5067 20.2987 89.1227 20.208 88.664 20.208H86.392V18.24H88.472C89.4533 18.24 90.2853 18.4 90.968 18.72C91.6613 19.04 92.1893 19.4987 92.552 20.096C92.9147 20.6827 93.096 21.3813 93.096 22.192V22.448C93.096 23.2587 92.9147 23.9627 92.552 24.56C92.1893 25.1467 91.6613 25.6053 90.968 25.936C90.2853 26.256 89.4533 26.416 88.472 26.416H86.392ZM84.44 30V18.24H86.712V30H84.44ZM99.9499 30V27.424H99.5819V24.56C99.5819 24.0587 99.4592 23.6853 99.2139 23.44C98.9685 23.1947 98.5899 23.072 98.0779 23.072C97.8112 23.072 97.4912 23.0773 97.1179 23.088C96.7445 23.0987 96.3659 23.1147 95.9819 23.136C95.6085 23.1467 95.2725 23.1627 94.9739 23.184V21.296C95.2192 21.2747 95.4965 21.2533 95.8059 21.232C96.1152 21.2107 96.4299 21.2 96.7499 21.2C97.0805 21.1893 97.3899 21.184 97.6779 21.184C98.5739 21.184 99.3152 21.3013 99.9019 21.536C100.499 21.7707 100.947 22.1387 101.246 22.64C101.555 23.1413 101.71 23.7973 101.71 24.608V30H99.9499ZM97.1499 30.224C96.5205 30.224 95.9659 30.112 95.4859 29.888C95.0165 29.664 94.6485 29.344 94.3819 28.928C94.1259 28.512 93.9979 28.0107 93.9979 27.424C93.9979 26.784 94.1525 26.2613 94.4619 25.856C94.7819 25.4507 95.2245 25.1467 95.7899 24.944C96.3659 24.7413 97.0379 24.64 97.8059 24.64H99.8219V25.968H97.7739C97.2619 25.968 96.8672 26.096 96.5899 26.352C96.3232 26.5973 96.1899 26.9173 96.1899 27.312C96.1899 27.7067 96.3232 28.0267 96.5899 28.272C96.8672 28.5173 97.2619 28.64 97.7739 28.64C98.0832 28.64 98.3659 28.5867 98.6219 28.48C98.8885 28.3627 99.1072 28.1707 99.2779 27.904C99.4592 27.6267 99.5605 27.2533 99.5819 26.784L100.126 27.408C100.073 28.016 99.9232 28.528 99.6779 28.944C99.4432 29.36 99.1125 29.68 98.6859 29.904C98.2699 30.1173 97.7579 30.224 97.1499 30.224ZM103.727 33.424V31.52H105.359C105.668 31.52 105.924 31.4773 106.127 31.392C106.34 31.3173 106.516 31.1893 106.655 31.008C106.793 30.8373 106.9 30.5973 106.975 30.288L109.311 21.312H111.439L108.863 30.768C108.692 31.4187 108.452 31.936 108.143 32.32C107.833 32.7147 107.433 32.9973 106.943 33.168C106.463 33.3387 105.865 33.424 105.151 33.424H103.727ZM106.431 29.808V28.048H108.287V29.808H106.431ZM105.679 29.808L102.863 21.312H105.103L107.775 29.808H105.679ZM119.396 30L121.044 21.6H123.604L125.508 30H123.748L121.812 21.648H122.74L121.028 30H119.396ZM118.74 30L118.724 28.176H120.5V30H118.74ZM117.844 30L115.476 21.312H117.636L119.892 30H117.844ZM124.308 30V28.176H126.084L126.068 30H124.308ZM125.012 30L127.012 21.312H129.028L126.932 30H125.012ZM131.196 30V21.312H133.42V30H131.196ZM129.98 22.976V21.312H133.42V22.976H129.98ZM132.012 20.272C131.574 20.272 131.249 20.16 131.036 19.936C130.833 19.7013 130.732 19.4133 130.732 19.072C130.732 18.7093 130.833 18.416 131.036 18.192C131.249 17.968 131.574 17.856 132.012 17.856C132.449 17.856 132.769 17.968 132.972 18.192C133.174 18.416 133.276 18.7093 133.276 19.072C133.276 19.4133 133.174 19.7013 132.972 19.936C132.769 20.16 132.449 20.272 132.012 20.272ZM139.759 30.112C138.959 30.112 138.297 30.0107 137.775 29.808C137.263 29.5947 136.879 29.2427 136.623 28.752C136.367 28.2507 136.239 27.5787 136.239 26.736L136.255 18.864H138.335L138.319 26.88C138.319 27.3067 138.431 27.6373 138.655 27.872C138.889 28.096 139.22 28.208 139.647 28.208H141.007V30.112H139.759ZM134.863 22.944V21.312H141.007V22.944H134.863ZM142.873 30V18.32H145.097V25.136H144.713C144.713 24.2613 144.825 23.52 145.049 22.912C145.273 22.304 145.604 21.84 146.041 21.52C146.489 21.2 147.055 21.04 147.737 21.04H147.833C148.825 21.04 149.577 21.3813 150.089 22.064C150.601 22.7467 150.857 23.7387 150.857 25.04V30H148.633V24.832C148.633 24.2773 148.473 23.84 148.153 23.52C147.844 23.2 147.433 23.04 146.921 23.04C146.377 23.04 145.935 23.2213 145.593 23.584C145.263 23.936 145.097 24.4 145.097 24.976V30H142.873Z" fill="white"/>
<g clip-path="url(#clip1_162_1892)">
<path d="M213.11 29.1293L209.819 21.6711H207.088L211.789 31.7343L211.704 32.0373C211.586 32.4401 211.338 32.7879 211.001 33.0215C210.664 33.255 210.259 33.3597 209.857 33.3178C209.385 33.3133 208.922 33.1837 208.512 32.9415L208.075 35.0968C208.706 35.3671 209.381 35.5082 210.063 35.5122C211.944 35.5122 213.081 34.7938 214.022 32.6775L219 21.6711H216.363L213.11 29.1293Z" fill="white"/>
<path d="M189.853 18.1179H181.965V31.827H184.55V26.7881H189.853C192.735 26.7881 194.629 25.278 194.629 22.453C194.629 19.6281 192.735 18.1179 189.853 18.1179ZM189.712 24.3885H184.541V20.4785H189.712C191.207 20.4785 192.062 21.1872 192.062 22.4335C192.062 23.6798 191.207 24.3885 189.712 24.3885Z" fill="white"/>
<path d="M205.439 29.2273V25.0974C205.439 22.6538 203.751 21.3879 200.855 21.3879C198.505 21.3879 196.446 22.5267 195.868 24.2763L197.992 25.0584C198.307 24.1835 199.403 23.5384 200.766 23.5384C202.383 23.5384 203.065 24.2226 203.065 25.0584V25.3272L199.219 25.767C197.005 26.0114 195.548 27.0426 195.548 28.8852C195.548 30.9036 197.217 31.9886 199.431 31.9886C200.858 32.0349 202.248 31.5101 203.314 30.5224C203.699 31.4999 204.094 32.1548 206.722 31.8078V29.7649C205.669 30.0288 205.439 29.7649 205.439 29.2273ZM203.088 27.9175C203.088 29.2468 201.297 29.9506 199.798 29.9506C198.655 29.9506 197.969 29.5694 197.969 28.8118C197.969 28.0543 198.533 27.7806 199.624 27.6487L203.098 27.2283L203.088 27.9175Z" fill="white"/>
<path d="M177.074 28.6115C177.093 28.6686 177.093 28.7303 177.074 28.7874C177.064 28.8444 177.038 28.897 176.999 28.9389L174.512 31.6514C174.458 31.7099 174.392 31.7565 174.32 31.7883C174.247 31.8213 174.169 31.838 174.089 31.8371H162.294C162.24 31.8376 162.186 31.8224 162.139 31.7931C162.093 31.7601 162.055 31.7145 162.031 31.6612C162.015 31.6072 162.015 31.5491 162.031 31.495C162.041 31.4388 162.065 31.3863 162.102 31.3435L164.593 28.6311C164.648 28.5725 164.714 28.5259 164.786 28.4942C164.858 28.4607 164.937 28.444 165.016 28.4453H176.792C176.849 28.4442 176.905 28.4612 176.952 28.4942C177.005 28.5169 177.048 28.5584 177.074 28.6115ZM174.517 23.4602C174.461 23.4032 174.396 23.3568 174.324 23.3233C174.251 23.2925 174.173 23.276 174.094 23.2745H162.294C162.239 23.2753 162.185 23.2922 162.139 23.3233C162.092 23.3544 162.055 23.3984 162.031 23.4504C162.015 23.5045 162.015 23.5625 162.031 23.6166C162.039 23.6734 162.064 23.7264 162.102 23.7681L164.593 26.4854C164.649 26.5425 164.715 26.5888 164.786 26.6223C164.859 26.6535 164.937 26.67 165.016 26.6712H176.792C176.849 26.6723 176.905 26.6552 176.952 26.6223C177 26.5935 177.036 26.5487 177.056 26.4953C177.08 26.4432 177.088 26.3847 177.078 26.3279C177.069 26.2709 177.043 26.2184 177.004 26.1776L174.517 23.4602ZM162.139 21.4563C162.186 21.4856 162.24 21.5008 162.294 21.5003H174.094C174.173 21.5012 174.252 21.4845 174.324 21.4514C174.397 21.4197 174.462 21.3732 174.517 21.3146L177.004 18.6021C177.042 18.5601 177.068 18.5075 177.079 18.4506C177.095 18.3965 177.095 18.3385 177.079 18.2844C177.06 18.231 177.023 18.1861 176.976 18.1573C176.928 18.1244 176.873 18.1073 176.816 18.1085H164.998C164.918 18.1072 164.84 18.1238 164.767 18.1573C164.695 18.1891 164.629 18.2356 164.574 18.2942L162.088 21.0164C162.048 21.0578 162.022 21.1106 162.012 21.168C161.996 21.222 161.996 21.2801 162.012 21.3341C162.043 21.3864 162.087 21.4287 162.139 21.4563Z" fill="url(#paint1_linear_162_1892)"/>
</g>
<defs>
<linearGradient id="paint0_linear_162_1892" x1="2.12286e-06" y1="6.34044" x2="44.6686" y2="126.624" gradientUnits="userSpaceOnUse">
<stop stop-color="#409099"/>
<stop offset="1" stop-color="#84E681"/>
</linearGradient>
<linearGradient id="paint1_linear_162_1892" x1="163.274" y1="32.1644" x2="175.895" y2="18.177" gradientUnits="userSpaceOnUse">
<stop offset="0.08" stop-color="#9945FF"/>
<stop offset="0.3" stop-color="#8752F3"/>
<stop offset="0.5" stop-color="#5497D5"/>
<stop offset="0.6" stop-color="#43B4CA"/>
<stop offset="0.72" stop-color="#28E0B9"/>
<stop offset="0.97" stop-color="#19FB9B"/>
</linearGradient>
<clipPath id="clip0_162_1892">
<rect width="41" height="41" fill="white" transform="translate(32 4.5)"/>
</clipPath>
<clipPath id="clip1_162_1892">
<rect width="57" height="22" fill="white" transform="translate(162 14)"/>
</clipPath>
</defs>
</svg>
