<svg width="48" height="48" viewBox="0 0 48 49" fill="none" xmlns="http://www.w3.org/2000/svg">
<circle cx="24.0001" cy="24.7462" r="23.8299" fill="#E6FAE6"/>
<path fill-rule="evenodd" clip-rule="evenodd" d="M19.9737 36.1541C19.9737 36.5246 19.6623 36.8252 19.3026 36.8252C18.9321 36.8252 18.6315 36.5205 18.6315 36.1541L18.6315 14.9583L15.0804 18.5108C14.8173 18.7726 14.3933 18.7726 14.1302 18.5108C13.8684 18.2477 13.8684 17.8237 14.1302 17.562L18.8276 12.8645C18.9525 12.7396 19.1121 12.6753 19.2745 12.6686C19.2839 12.6672 19.2934 12.6672 19.3026 12.6672C19.3242 12.6672 19.3442 12.6686 19.3644 12.6699C19.5147 12.6848 19.6623 12.749 19.7778 12.8645L24.4753 17.5622C24.737 17.824 24.737 18.2479 24.4753 18.511C24.2122 18.7728 23.7882 18.7728 23.5251 18.511L19.9739 14.9585L19.9737 36.1541ZM28.0264 13.3386C28.0264 12.9681 28.3378 12.6674 28.6975 12.6674C29.068 12.6674 29.3687 12.9721 29.3687 13.3386L29.3687 34.5343L32.9198 30.9818C33.1829 30.7201 33.6068 30.7201 33.87 30.9818C34.1317 31.2449 34.1317 31.6689 33.87 31.9307L29.1728 36.6279C29.0478 36.7528 28.8883 36.8171 28.7259 36.8238C28.7164 36.8252 28.707 36.8252 28.6978 36.8252C28.6762 36.8252 28.6562 36.8238 28.636 36.8225C28.4843 36.8076 28.3381 36.7434 28.2226 36.6279L23.5251 31.9304C23.2634 31.6687 23.2634 31.2447 23.5251 30.9816C23.7882 30.7198 24.2122 30.7198 24.4753 30.9816L28.0264 34.5341L28.0264 13.3383L28.0264 13.3386Z" fill="white"/>
<path fill-rule="evenodd" clip-rule="evenodd" d="M19.9737 36.1541C19.9737 36.5246 19.6623 36.8252 19.3026 36.8252C18.9321 36.8252 18.6315 36.5205 18.6315 36.1541L18.6315 14.9583L15.0804 18.5108C14.8173 18.7726 14.3933 18.7726 14.1302 18.5108C13.8684 18.2477 13.8684 17.8237 14.1302 17.562L18.8276 12.8645C18.9525 12.7396 19.1121 12.6753 19.2745 12.6686C19.2839 12.6672 19.2934 12.6672 19.3026 12.6672C19.3242 12.6672 19.3442 12.6686 19.3644 12.6699C19.5147 12.6848 19.6623 12.749 19.7778 12.8645L24.4753 17.5622C24.737 17.824 24.737 18.2479 24.4753 18.511C24.2122 18.7728 23.7882 18.7728 23.5251 18.511L19.9739 14.9585L19.9737 36.1541ZM28.0264 13.3386C28.0264 12.9681 28.3378 12.6674 28.6975 12.6674C29.068 12.6674 29.3687 12.9721 29.3687 13.3386L29.3687 34.5343L32.9198 30.9818C33.1829 30.7201 33.6068 30.7201 33.87 30.9818C34.1317 31.2449 34.1317 31.6689 33.87 31.9307L29.1728 36.6279C29.0478 36.7528 28.8883 36.8171 28.7259 36.8238C28.7164 36.8252 28.707 36.8252 28.6978 36.8252C28.6762 36.8252 28.6562 36.8238 28.636 36.8225C28.4843 36.8076 28.3381 36.7434 28.2226 36.6279L23.5251 31.9304C23.2634 31.6687 23.2634 31.2447 23.5251 30.9816C23.7882 30.7198 24.2122 30.7198 24.4753 30.9816L28.0264 34.5341L28.0264 13.3383L28.0264 13.3386Z" fill="url(#paint0_linear_161_1713)"/>
<path fill-rule="evenodd" clip-rule="evenodd" d="M19.9737 36.1541C19.9737 36.5246 19.6623 36.8252 19.3026 36.8252C18.9321 36.8252 18.6315 36.5205 18.6315 36.1541L18.6315 14.9583L15.0804 18.5108C14.8173 18.7726 14.3933 18.7726 14.1302 18.5108C13.8684 18.2477 13.8684 17.8237 14.1302 17.562L18.8276 12.8645C18.9525 12.7396 19.1121 12.6753 19.2745 12.6686C19.2839 12.6672 19.2934 12.6672 19.3026 12.6672C19.3242 12.6672 19.3442 12.6686 19.3644 12.6699C19.5147 12.6848 19.6623 12.749 19.7778 12.8645L24.4753 17.5622C24.737 17.824 24.737 18.2479 24.4753 18.511C24.2122 18.7728 23.7882 18.7728 23.5251 18.511L19.9739 14.9585L19.9737 36.1541ZM28.0264 13.3386C28.0264 12.9681 28.3378 12.6674 28.6975 12.6674C29.068 12.6674 29.3687 12.9721 29.3687 13.3386L29.3687 34.5343L32.9198 30.9818C33.1829 30.7201 33.6068 30.7201 33.87 30.9818C34.1317 31.2449 34.1317 31.6689 33.87 31.9307L29.1728 36.6279C29.0478 36.7528 28.8883 36.8171 28.7259 36.8238C28.7164 36.8252 28.707 36.8252 28.6978 36.8252C28.6762 36.8252 28.6562 36.8238 28.636 36.8225C28.4843 36.8076 28.3381 36.7434 28.2226 36.6279L23.5251 31.9304C23.2634 31.6687 23.2634 31.2447 23.5251 30.9816C23.7882 30.7198 24.2122 30.7198 24.4753 30.9816L28.0264 34.5341L28.0264 13.3383L28.0264 13.3386Z" stroke="white" stroke-width="0.90059"/>
<path fill-rule="evenodd" clip-rule="evenodd" d="M19.9737 36.1541C19.9737 36.5246 19.6623 36.8252 19.3026 36.8252C18.9321 36.8252 18.6315 36.5205 18.6315 36.1541L18.6315 14.9583L15.0804 18.5108C14.8173 18.7726 14.3933 18.7726 14.1302 18.5108C13.8684 18.2477 13.8684 17.8237 14.1302 17.562L18.8276 12.8645C18.9525 12.7396 19.1121 12.6753 19.2745 12.6686C19.2839 12.6672 19.2934 12.6672 19.3026 12.6672C19.3242 12.6672 19.3442 12.6686 19.3644 12.6699C19.5147 12.6848 19.6623 12.749 19.7778 12.8645L24.4753 17.5622C24.737 17.824 24.737 18.2479 24.4753 18.511C24.2122 18.7728 23.7882 18.7728 23.5251 18.511L19.9739 14.9585L19.9737 36.1541ZM28.0264 13.3386C28.0264 12.9681 28.3378 12.6674 28.6975 12.6674C29.068 12.6674 29.3687 12.9721 29.3687 13.3386L29.3687 34.5343L32.9198 30.9818C33.1829 30.7201 33.6068 30.7201 33.87 30.9818C34.1317 31.2449 34.1317 31.6689 33.87 31.9307L29.1728 36.6279C29.0478 36.7528 28.8883 36.8171 28.7259 36.8238C28.7164 36.8252 28.707 36.8252 28.6978 36.8252C28.6762 36.8252 28.6562 36.8238 28.636 36.8225C28.4843 36.8076 28.3381 36.7434 28.2226 36.6279L23.5251 31.9304C23.2634 31.6687 23.2634 31.2447 23.5251 30.9816C23.7882 30.7198 24.2122 30.7198 24.4753 30.9816L28.0264 34.5341L28.0264 13.3383L28.0264 13.3386Z" stroke="url(#paint1_linear_161_1713)" stroke-width="0.90059"/>
<defs>
<linearGradient id="paint0_linear_161_1713" x1="16.4868" y1="36.8252" x2="32.6311" y2="11.7434" gradientUnits="userSpaceOnUse">
<stop stop-color="#409099"/>
<stop offset="1" stop-color="#84E681"/>
</linearGradient>
<linearGradient id="paint1_linear_161_1713" x1="16.4868" y1="36.8252" x2="32.6311" y2="11.7434" gradientUnits="userSpaceOnUse">
<stop stop-color="#409099"/>
<stop offset="1" stop-color="#84E681"/>
</linearGradient>
</defs>
</svg>
